SplineFontDB: 3.2
FontName: LibrestileExtBold
FullName: Librestile Extended Bold
FamilyName: Librestile Extended Bold
Weight: Bold
Copyright: SIL Open Font License.\n\n\nMade by ocelothe2k1, 2024
UComments: "2024-1-29: Created with FontForge.+AAoACgAA-sub to oce pls"
Version: 2.0
ItalicAngle: 0
UnderlinePosition: -100
UnderlineWidth: 50
Ascent: 800
Descent: 200
InvalidEm: 0
LayerCount: 2
Layer: 0 0 "Warstwa t+AUIA-a" 1
Layer: 1 0 "Plan pierwszy" 0
XUID: [1021 541 -643795429 6326]
StyleMap: 0x0000
FSType: 0
OS2Version: 0
OS2_WeightWidthSlopeOnly: 0
OS2_UseTypoMetrics: 1
CreationTime: 1706545661
ModificationTime: 1710374097
PfmFamily: 17
TTFWeight: 400
TTFWidth: 5
LineGap: 90
VLineGap: 90
OS2TypoAscent: 0
OS2TypoAOffset: 1
OS2TypoDescent: 0
OS2TypoDOffset: 1
OS2TypoLinegap: 90
OS2WinAscent: 0
OS2WinAOffset: 1
OS2WinDescent: 0
OS2WinDOffset: 1
HheadAscent: 0
HheadAOffset: 1
HheadDescent: 0
HheadDOffset: 1
OS2Vendor: 'PfEd'
MarkAttachClasses: 1
DEI: 91125
LangName: 1033
Encoding: iso8859-16
UnicodeInterp: none
NameList: AGL For New Fonts
DisplaySize: -48
AntiAlias: 1
FitToEm: 0
WinInfo: 0 38 13
BeginPrivate: 0
EndPrivate
TeXData: 1 0 0 31457 15728 10485 566231 1048576 10485 783286 444596 497025 792723 393216 433062 380633 303038 157286 324010 404750 52429 2506097 1059062 262144
BeginChars: 257 114

StartChar: A
Encoding: 65 65 0
Width: 1214
Flags: HW
LayerCount: 2
Fore
SplineSet
486.771484375 771.596679688 m 1
 484.51953125 767.796875 l 1
 221.80859375 324.006835938 l 1
 30 0 l 1
 275.125 0 l 1
 357.255859375 138.739257812 l 1
 856.912109375 138.739257812 l 1
 939.04296875 0 l 1
 1184.16796875 0 l 1
 729.642578125 767.796875 l 1
 727.396484375 771.596679688 l 1
 486.771484375 771.596679688 l 1
607.080078125 560.7578125 m 1
 747.234375 324.006835938 l 1
 466.93359375 324.006835938 l 1
 607.080078125 560.7578125 l 1
EndSplineSet
EndChar

StartChar: B
Encoding: 66 66 1
Width: 1013
Flags: HW
HStem: 574.438 197.344<275.125 724.476>
LayerCount: 2
Fore
SplineSet
70.1904296875 771.782226562 m 1
 70.1904296875 771.596679688 l 1
 30 771.596679688 l 1
 30 0 l 1
 275.125 0 l 1
 275.125 0.7978515625 l 1
 684.12890625 0.7978515625 l 2
 713.995117188 -1.5166015625 728.092773438 0.9951171875 753.3359375 0.9951171875 c 0
 880.592773438 0.99609375 983.754882812 89.26171875 983.7578125 198.147460938 c 0
 983.758789062 288.33984375 912.952148438 364.3359375 816.326171875 387.791015625 c 1
 907.1640625 414.225585938 972.544921875 487.775390625 972.54296875 574.439453125 c 0
 972.541015625 683.325195312 869.379882812 771.596679688 742.123046875 771.59765625 c 0
 734.547851562 771.59765625 724.264648438 771.59765625 715.749023438 771.708007812 c 2
 715.749023438 771.813476562 l 1
 70.1904296875 771.782226562 l 1
275.125 574.438476562 m 1
 682.372070312 574.438476562 l 2
 711.390625 574.439453125 734.9140625 550.822265625 734.913085938 521.686523438 c 2
 734.913085938 515.715820312 l 2
 734.911132812 486.583984375 719.26171875 456.897460938 690.245117188 456.8984375 c 2
 275.125 456.8984375 l 1
 275.125 574.438476562 l 1
275.125 295.833007812 m 1
 574.692382812 295.833007812 l 1
 704.51953125 295.833007812 l 2
 733.53515625 295.834960938 746.125 286.005859375 746.125976562 256.873046875 c 2
 746.125976562 250.903320312 l 2
 746.127929688 221.805664062 722.662109375 198.2109375 693.696289062 198.151367188 c 2
 275.125 198.151367188 l 1
 275.125 295.833007812 l 1
EndSplineSet
EndChar

StartChar: C
Encoding: 67 67 2
Width: 1095
Flags: HW
HStem: 0 172.676<307.905 367.971 681.031 741.097> 598.921 172.676<307.905 367.971 681.031 741.905>
LayerCount: 2
Fore
SplineSet
510.577148438 770 m 4
 428.440429688 769.856445312 346.853515625 765.344726562 265.6796875 753.783203125 c 4
 142.575195312 736.249023438 57.064453125 654.379882812 40.4140625 534.173828125 c 4
 26.6484375 434.798828125 26.408203125 334.934570312 40.4140625 234.560546875 c 4
 57.1865234375 114.369140625 142.575195312 32.4853515625 265.6796875 14.951171875 c 4
 359.478515625 1.5908203125 453.8359375 -2.3759765625 548.94921875 -0.966796875 c 4
 644.0625 -2.37109375 738.421875 1.5908203125 832.219726562 14.951171875 c 4
 955.32421875 32.4853515625 1040.71484375 114.369140625 1057.48632812 234.560546875 c 4
 1061.03320312 259.9765625 1063.64941406 285.360351562 1065.37988281 310.7109375 c 5
 830.00390625 310.7109375 l 5
 820.001953125 254.127929688 773.096679688 215.610351562 705.713867188 207.296875 c 4
 653.806640625 200.893554688 601.587890625 198.990234375 548.94921875 199.666015625 c 4
 496.309570312 198.985351562 444.091796875 200.897460938 392.182617188 207.296875 c 4
 324.053710938 215.702148438 276.794921875 254.953125 267.516601562 312.56640625 c 4
 259.764648438 360.680664062 259.897460938 408.55078125 267.516601562 456.1875 c 4
 276.727539062 513.80859375 324.053710938 553.049804688 392.182617188 561.453125 c 4
 437.108398438 566.997070312 482.25390625 569.174804688 527.711914062 569.232421875 c 4
 541.868164062 569.236328125 556.026367188 569.05859375 570.1875 569.232421875 c 4
 615.640625 569.232421875 660.79296875 566.997070312 705.713867188 561.453125 c 4
 750.666992188 555.908203125 786.467773438 536.873046875 808.3359375 508.05859375 c 5
 1060.65722656 508.05859375 l 5
 1059.66015625 516.765625 1058.69335938 525.473632812 1057.48632812 534.173828125 c 4
 1040.83691406 654.379882812 955.32421875 736.249023438 832.219726562 753.783203125 c 4
 751.047851562 765.344726562 669.458007812 769.8984375 587.323242188 770 c 4
 561.73828125 769.63671875 536.161132812 770 510.577148438 770 c 4
EndSplineSet
EndChar

StartChar: D
Encoding: 68 68 3
Width: 1099
Flags: HW
VStem: 840.195 229.512<245.861 313.767 449.688 516.992>
LayerCount: 2
Fore
SplineSet
30 771.596679688 m 1
 30 0 l 1
 825.775390625 0 l 2
 960.404296875 0.0009765625 1069.70703125 109.997070312 1069.70703125 245.481445312 c 1
 1069.70703125 510.250976562 l 2
 1069.70703125 654.491210938 953.341796875 771.595703125 810.013671875 771.596679688 c 1
 30 771.596679688 l 1
259.51171875 583.860351562 m 1
 695.158203125 583.860351562 l 2
 775.20703125 583.857421875 840.1953125 523.736328125 840.1953125 449.6875 c 1
 840.1953125 449.690429688 840.1953125 313.766601562 840.1953125 313.766601562 c 2
 840.1953125 244.212890625 779.150390625 187.73828125 703.9609375 187.736328125 c 1
 703.9609375 187.741210938 259.51171875 187.736328125 259.51171875 187.736328125 c 1
 259.51171875 583.860351562 l 1
EndSplineSet
EndChar

StartChar: E
Encoding: 69 69 4
Width: 905
Flags: HW
LayerCount: 2
Fore
SplineSet
30 771.176757812 m 1
 30 -0.419921875 l 1
 272.241210938 -0.419921875 l 1
 272.241210938 0 l 1
 875.0234375 0 l 1
 875.0234375 196.58203125 l 1
 272.241210938 196.58203125 l 1
 272.241210938 304.538085938 l 1
 797.536132812 304.538085938 l 1
 797.536132812 472.387695312 l 1
 272.241210938 472.387695312 l 1
 272.241210938 574.596679688 l 1
 875.0234375 574.596679688 l 1
 875.0234375 771.176757812 l 1
 272.241210938 771.176757812 l 1
 108.30078125 771.176757812 l 1
 30 771.176757812 l 1
EndSplineSet
EndChar

StartChar: F
Encoding: 70 70 5
Width: 905
Flags: HW
LayerCount: 2
Fore
SplineSet
30 771.596679688 m 1
 30 0 l 1
 272.2421875 0 l 1
 272.2421875 275.805664062 l 1
 797.537109375 275.805664062 l 1
 797.537109375 449.823242188 l 1
 272.2421875 449.823242188 l 1
 272.2421875 575.016601562 l 1
 875.0234375 575.016601562 l 1
 875.0234375 771.596679688 l 1
 272.2421875 771.596679688 l 1
 108.296875 771.596679688 l 1
 30 771.596679688 l 1
EndSplineSet
EndChar

StartChar: G
Encoding: 71 71 6
Width: 1095
Flags: HW
HStem: 0 175.365<293.288 351.764 713.539 772.017> 591.355 175.365<293.288 351.764 713.539 772.883>
LayerCount: 2
Fore
SplineSet
510.577148438 770 m 5
 428.442382812 769.856445312 346.852539062 765.344726562 265.6796875 753.783203125 c 4
 142.575195312 736.249023438 57.064453125 654.379882812 40.4130859375 534.173828125 c 4
 26.6494140625 434.798828125 26.4091796875 334.934570312 40.4130859375 234.560546875 c 4
 57.1875 114.370117188 142.575195312 32.4853515625 265.6796875 14.951171875 c 4
 359.477539062 1.5908203125 453.8359375 -2.375 548.950195312 -0.966796875 c 4
 644.061523438 -2.37109375 738.421875 1.5908203125 832.21875 14.951171875 c 4
 955.325195312 32.4853515625 1040.71484375 114.370117188 1057.48730469 234.560546875 c 4
 1061.03320312 259.9765625 1063.6484375 285.359375 1065.38378906 310.7109375 c 6
 1065.38378906 436.755859375 l 5
 547.689453125 436.755859375 l 5
 547.689453125 310.7109375 l 5
 830.00390625 310.7109375 l 5
 820.000976562 254.127929688 773.098632812 215.610351562 705.717773438 207.296875 c 4
 653.805664062 200.893554688 601.587890625 198.990234375 548.950195312 199.666015625 c 4
 496.313476562 198.985351562 444.09375 200.8984375 392.181640625 207.296875 c 4
 324.055664062 215.702148438 276.795898438 254.953125 267.515625 312.56640625 c 4
 259.764648438 360.680664062 259.897460938 408.55078125 267.515625 456.1875 c 4
 276.729492188 513.80859375 324.055664062 553.049804688 392.181640625 561.453125 c 4
 437.107421875 566.997070312 482.252929688 569.174804688 527.711914062 569.232421875 c 4
 541.868164062 569.236328125 556.030273438 569.05859375 570.186523438 569.232421875 c 4
 615.64453125 569.232421875 660.79296875 566.997070312 705.717773438 561.453125 c 4
 750.666015625 555.908203125 786.466796875 544.873046875 808.3359375 516.05859375 c 5
 1057.72753906 516.64453125 l 5
 1057.48632812 534.173828125 l 6
 1055.82226562 655.515625 955.32421875 736.249023438 832.217773438 753.783203125 c 4
 751.044921875 765.344726562 669.455078125 769.8984375 587.321289062 770 c 4
 561.736328125 769.63671875 536.161132812 770 510.575195312 770 c 5
 510.577148438 770 l 5
EndSplineSet
EndChar

StartChar: H
Encoding: 72 72 7
Width: 1063
Flags: HW
LayerCount: 2
Fore
SplineSet
30 775.743164062 m 1
 30 0 l 1
 275.124023438 0 l 1
 275.124023438 304.870117188 l 1
 788.569335938 304.870117188 l 1
 788.569335938 0 l 1
 1033.69335938 0 l 1
 1033.69335938 775.743164062 l 1
 788.569335938 775.743164062 l 1
 788.569335938 492.897460938 l 1
 275.124023438 492.897460938 l 1
 275.124023438 775.743164062 l 1
 30 775.743164062 l 1
EndSplineSet
EndChar

StartChar: I
Encoding: 73 73 8
Width: 305
Flags: HW
VStem: 30 245.123
LayerCount: 2
Fore
SplineSet
30 775.745117188 m 1
 30 0 l 1
 275.123046875 0 l 1
 275.123046875 775.745117188 l 1
 30 775.745117188 l 1
EndSplineSet
EndChar

StartChar: J
Encoding: 74 74 9
Width: 861
Flags: HW
HStem: 0 203.476<303.069 356.716 356.82 555.31>
VStem: 584.482 246.91<236.942 771.094>
LayerCount: 2
Fore
SplineSet
276.909179688 330.079101562 m 1
 30 330.079101562 l 1
 30 225.697265625 l 2
 30 101.131835938 130.509765625 0 254.309570312 0 c 1
 576.291992188 0 l 2
 717.084960938 0 831.392578125 115.014648438 831.392578125 256.678710938 c 1
 831.391601562 256.677734375 831.392578125 771.466796875 831.392578125 771.466796875 c 1
 584.482421875 771.466796875 l 1
 584.482421875 288.376953125 l 2
 584.482421875 241.51953125 546.672851562 203.475585938 500.103515625 203.475585938 c 1
 500.104492188 203.4765625 356.715820312 203.475585938 356.715820312 203.475585938 c 2
 312.671875 203.475585938 276.911132812 239.454101562 276.909179688 283.770507812 c 1
 276.911132812 283.770507812 276.909179688 330.079101562 276.909179688 330.079101562 c 1
EndSplineSet
EndChar

StartChar: K
Encoding: 75 75 10
Width: 1039
Flags: HW
LayerCount: 2
Fore
SplineSet
30 771.466796875 m 1
 30 0 l 1
 275.125 0 l 1
 275.125 296.2421875 l 1
 361.23828125 296.2421875 l 1
 450.15625 208.518554688 l 1
 661.786132812 -0.2646484375 l 1
 1007.45410156 -0.2646484375 l 1
 1009.640625 1.9794921875 l 1
 621.76953125 384.633789062 l 1
 993.2578125 765.862304688 l 1
 987.576171875 771.466796875 l 1
 655.423828125 771.466796875 l 1
 380.87109375 489.71484375 l 1
 275.125 489.71484375 l 1
 275.125 771.466796875 l 1
 30 771.466796875 l 1
EndSplineSet
EndChar

StartChar: L
Encoding: 76 76 11
Width: 786
Flags: HW
LayerCount: 2
Fore
SplineSet
30 771.466796875 m 5
 30 199.513671875 l 5
 30 0 l 5
 275.125 0 l 5
 756.58203125 0 l 5
 756.58203125 199.513671875 l 5
 275.125 199.513671875 l 5
 275.125 771.466796875 l 5
 30 771.466796875 l 5
EndSplineSet
EndChar

StartChar: M
Encoding: 77 77 12
Width: 1382
Flags: HW
LayerCount: 2
Fore
SplineSet
30 771.466796875 m 1
 30 0 l 1
 275.125 0 l 1
 275.125 495.903320312 l 1
 626.140625 0 l 1
 760.172851562 0 l 1
 1107.72460938 491.016601562 l 1
 1107.72460938 0 l 1
 1352.84960938 0 l 1
 1352.84960938 771.466796875 l 1
 1107.72460938 771.466796875 l 1
 1005.296875 771.466796875 l 1
 693.15625 330.482421875 l 1
 381.015625 771.466796875 l 1
 275.125 771.466796875 l 1
 30 771.466796875 l 1
EndSplineSet
EndChar

StartChar: N
Encoding: 78 78 13
Width: 1112
Flags: HW
LayerCount: 2
Fore
SplineSet
30 766.720703125 m 1
 30 0 l 1
 275.125 0 l 1
 275.125 558.28515625 l 1
 756.63671875 0 l 1
 837.380859375 0 l 1
 872.78125 0 l 1
 1082.50390625 0 l 1
 1082.50390625 766.720703125 l 1
 837.380859375 766.720703125 l 1
 837.380859375 217.5625 l 1
 363.747070312 766.720703125 l 1
 275.125 766.720703125 l 1
 30 766.720703125 l 1
EndSplineSet
EndChar

StartChar: O
Encoding: 79 79 14
Width: 1097
Flags: HW
HStem: 0 182.942<314.801 374.938 722.97 783.105> 583.783 182.938<314.801 374.938 722.97 783.105>
LayerCount: 2
Fore
SplineSet
510.580078125 770 m 4
 428.442382812 769.856445312 346.850585938 765.344726562 265.6796875 753.783203125 c 4
 142.576171875 736.248046875 57.0654296875 654.379882812 40.4130859375 534.173828125 c 4
 26.650390625 434.797851562 26.408203125 334.934570312 40.4130859375 234.560546875 c 4
 57.1884765625 114.369140625 142.576171875 32.4853515625 265.6796875 14.951171875 c 4
 359.48046875 1.591796875 453.837890625 -2.375 548.950195312 -0.9658203125 c 4
 644.063476562 -2.3701171875 738.423828125 1.591796875 832.221679688 14.951171875 c 4
 955.326171875 32.4853515625 1040.71582031 114.369140625 1057.48730469 234.560546875 c 4
 1071.49414062 334.934570312 1071.25390625 434.797851562 1057.48730469 534.173828125 c 4
 1040.83886719 654.379882812 955.326171875 736.248046875 832.221679688 753.783203125 c 4
 751.048828125 765.344726562 669.458007812 769.8984375 587.321289062 770 c 4
 561.741210938 769.63671875 536.163085938 770 510.580078125 770 c 4
527.709960938 569.232421875 m 4
 541.87109375 569.236328125 556.029296875 569.05859375 570.189453125 569.232421875 c 4
 615.643554688 569.232421875 660.794921875 566.99609375 705.716796875 561.452148438 c 4
 773.845703125 553.048828125 821.170898438 513.809570312 830.387695312 456.188476562 c 4
 838.005859375 408.551757812 838.139648438 360.681640625 830.387695312 312.567382812 c 4
 821.103515625 254.953125 773.845703125 215.701171875 705.716796875 207.295898438 c 4
 653.806640625 200.892578125 601.58984375 198.991210938 548.950195312 199.666992188 c 4
 496.311523438 198.986328125 444.092773438 200.897460938 392.18359375 207.295898438 c 4
 324.0546875 215.701171875 276.796875 254.953125 267.516601562 312.567382812 c 4
 259.766601562 360.681640625 259.899414062 408.551757812 267.516601562 456.188476562 c 4
 276.729492188 513.809570312 324.0546875 553.048828125 392.18359375 561.452148438 c 4
 437.104492188 566.99609375 482.255859375 569.174804688 527.709960938 569.232421875 c 4
EndSplineSet
EndChar

StartChar: P
Encoding: 80 80 15
Width: 981
Flags: HW
LayerCount: 2
Fore
SplineSet
30 766.720703125 m 5
 30 0 l 5
 267.240234375 0 l 5
 267.240234375 196.458984375 l 5
 765.737304688 196.458984375 l 6
 868.833007812 196.458984375 951.830078125 279.454101562 951.830078125 382.551757812 c 6
 951.830078125 580.627929688 l 6
 951.830078125 683.724609375 868.833007812 766.720703125 765.737304688 766.720703125 c 6
 267.240234375 766.720703125 l 5
 265.573242188 766.720703125 l 5
 30 766.720703125 l 5
267.240234375 570.451171875 m 5
 659.645507812 570.451171875 l 6
 691.776367188 570.451171875 717.645507812 544.588867188 717.645507812 512.45703125 c 6
 717.645507812 450.727539062 l 6
 717.645507812 418.596679688 691.776367188 392.728515625 659.645507812 392.728515625 c 6
 267.240234375 392.728515625 l 5
 267.240234375 570.451171875 l 5
EndSplineSet
EndChar

StartChar: Q
Encoding: 81 81 16
Width: 1233
Flags: HW
HStem: 0 182.942<314.8 374.938 722.969 784.194> 583.783 182.938<314.8 374.938 722.969 783.105>
LayerCount: 2
Fore
SplineSet
510.580078125 770 m 4
 428.444335938 769.856445312 346.852539062 765.344726562 265.6796875 753.783203125 c 4
 142.576171875 736.249023438 57.064453125 654.379882812 40.4140625 534.173828125 c 4
 26.6494140625 434.797851562 26.408203125 334.934570312 40.4140625 234.560546875 c 4
 57.1865234375 114.369140625 142.576171875 32.4853515625 265.6796875 14.951171875 c 4
 359.478515625 1.5908203125 453.838867188 -2.3759765625 548.951171875 -0.966796875 c 4
 644.064453125 -2.37109375 738.421875 1.5908203125 832.220703125 14.951171875 c 4
 889.44921875 23.1025390625 938.375976562 45.3115234375 976.19921875 78.66015625 c 5
 1106.74609375 -1.234375 l 5
 1203.17773438 156.3359375 l 5
 1058.72851562 244.73828125 l 5
 1071.33007812 341.68359375 1070.78808594 438.159179688 1057.48828125 534.173828125 c 4
 1040.83886719 654.379882812 955.325195312 736.249023438 832.220703125 753.783203125 c 4
 751.047851562 765.344726562 669.459960938 769.8984375 587.32421875 770 c 4
 561.741210938 769.63671875 536.163085938 770 510.580078125 770 c 4
527.712890625 569.232421875 m 4
 541.87109375 569.232421875 556.03125 569.05859375 570.189453125 569.232421875 c 4
 615.645507812 569.232421875 660.795898438 566.997070312 705.71875 561.453125 c 4
 773.84765625 553.048828125 821.171875 513.80859375 830.38671875 456.1875 c 4
 834.384765625 431.188476562 836.264648438 406.125 836.08203125 380.99609375 c 5
 704.509765625 461.517578125 l 5
 608.078125 303.947265625 l 5
 748.841796875 217.80078125 l 5
 735.668945312 212.815429688 721.270507812 209.21484375 705.71875 207.296875 c 4
 653.807617188 200.893554688 601.58984375 198.990234375 548.951171875 199.666015625 c 4
 496.3125 198.985351562 444.092773438 200.897460938 392.18359375 207.296875 c 4
 324.055664062 215.702148438 276.797851562 254.953125 267.515625 312.56640625 c 4
 259.764648438 360.680664062 259.897460938 408.55078125 267.515625 456.1875 c 4
 276.731445312 513.80859375 324.055664062 553.048828125 392.18359375 561.453125 c 4
 437.106445312 566.997070312 482.256835938 569.174804688 527.712890625 569.232421875 c 4
EndSplineSet
EndChar

StartChar: R
Encoding: 82 82 17
Width: 981
Flags: HW
VStem: 758.799 239.717<0.0537109 143.653 410.248 482.82 503.511 557.867>
LayerCount: 2
Fore
SplineSet
30 770 m 5
 30 -1.2353515625 l 5
 267.2421875 -1.2353515625 l 5
 267.2421875 196.379882812 l 5
 515.21875 196.379882812 l 5
 678.50390625 -0.7734375 l 5
 951.83203125 -1.2353515625 l 5
 802.9140625 200.104492188 l 5
 888.075195312 217.341796875 951.83203125 292.6796875 951.83203125 383.568359375 c 6
 951.83203125 582.810546875 l 6
 951.83203125 686.514648438 868.836914062 770 765.740234375 770 c 6
 267.2421875 770 l 5
 265.576171875 770 l 5
 30 770 l 5
267.2421875 572.575195312 m 5
 659.646484375 572.575195312 l 6
 691.779296875 572.575195312 717.6484375 546.559570312 717.6484375 514.240234375 c 6
 717.6484375 452.145507812 l 6
 717.6484375 419.825195312 691.779296875 393.8046875 659.646484375 393.8046875 c 6
 267.2421875 393.8046875 l 5
 267.2421875 572.575195312 l 5
EndSplineSet
EndChar

StartChar: S
Encoding: 83 83 18
Width: 1036
Flags: HW
HStem: 0 179.096<292.341 340.725 700.404 748.789> 309.545 147.633<285.885 321.197 714.975 750.288> 587.628 179.095<287.384 335.768 695.447 743.831>
VStem: 30 246.787<199.397 262.036 470.013 573.037> 764.344 241.828<199.397 291.307 504.687 566.905>
LayerCount: 2
Fore
SplineSet
260.58203125 766.72265625 m 6
 132.83984375 766.72265625 30 664.772460938 30 538.134765625 c 4
 30 411.495117188 132.83984375 309.544921875 260.58203125 309.544921875 c 6
 714.974609375 309.544921875 l 6
 743.318359375 303.03515625 764.34375 277.999023438 764.34375 247.864257812 c 6
 764.34375 242.479492188 l 6
 764.34375 207.365234375 735.826171875 179.095703125 700.404296875 179.095703125 c 6
 340.724609375 179.095703125 l 6
 305.302734375 179.095703125 276.787109375 207.365234375 276.787109375 242.479492188 c 6
 276.787109375 247.864257812 l 6
 276.787109375 252.932617188 277.4453125 257.836914062 278.5703125 262.555664062 c 5
 32.53125 262.555664062 l 6
 30.87890625 251.475585938 30 240.139648438 30 228.588867188 c 4
 30 101.950195312 132.845703125 0 260.58984375 0 c 6
 775.58984375 0 l 6
 903.33203125 0 1006.171875 101.950195312 1006.171875 228.588867188 c 4
 1006.171875 355.227539062 903.33203125 457.177734375 775.58984375 457.177734375 c 6
 321.197265625 457.177734375 l 6
 292.853515625 463.688476562 271.830078125 488.723632812 271.830078125 518.859375 c 6
 271.830078125 524.243164062 l 6
 271.830078125 559.358398438 300.345703125 587.627929688 335.767578125 587.627929688 c 6
 695.447265625 587.627929688 l 6
 730.869140625 587.627929688 759.384765625 559.358398438 759.384765625 524.243164062 c 6
 759.384765625 518.859375 l 6
 759.384765625 513.791015625 758.7265625 508.88671875 757.6015625 504.166992188 c 5
 1003.640625 504.166992188 l 6
 1005.29296875 515.248046875 1006.171875 526.583984375 1006.171875 538.134765625 c 4
 1006.171875 664.772460938 903.326171875 766.72265625 775.583984375 766.72265625 c 6
 260.58203125 766.72265625 l 6
EndSplineSet
EndChar

StartChar: T
Encoding: 84 84 19
Width: 964
Flags: HW
LayerCount: 2
Fore
SplineSet
30 771.62109375 m 5
 30 588 l 5
 365.15234375 588 l 5
 365.15234375 0.38671875 l 5
 603.970703125 0.38671875 l 5
 603.970703125 588 l 5
 934.662109375 588 l 5
 934.662109375 771.62109375 l 5
 603.970703125 771.62109375 l 5
 365.15234375 771.62109375 l 5
 30 771.62109375 l 5
EndSplineSet
EndChar

StartChar: U
Encoding: 85 85 20
Width: 1031
Flags: HW
LayerCount: 2
Fore
SplineSet
30 770 m 5
 30 224.396484375 l 6
 30 99.8671875 130.510742188 -1.234375 254.310546875 -1.234375 c 5
 254.309570312 -1.2333984375 786.2109375 -1.234375 786.2109375 -1.234375 c 6
 905.124023438 -1.234375 1001.66601562 95.8759765625 1001.66601562 215.489257812 c 4
 1001.66601562 770 l 5
 763.923828125 770 l 5
 763.923828125 320.450195312 l 6
 763.923828125 239.162109375 714.666015625 173.265625 653.901367188 173.266601562 c 6
 382.287109375 173.266601562 l 6
 319.025390625 173.265625 267.7421875 241.868164062 267.7421875 326.495117188 c 6
 267.7421875 770 l 5
 30 770 l 5
EndSplineSet
EndChar

StartChar: V
Encoding: 86 86 21
Width: 1198
Flags: HW
LayerCount: 2
Fore
SplineSet
30 771 m 1
 463.4765625 -0.234375 l 1
 489.44921875 -0.234375 l 1
 708.595703125 -0.234375 l 1
 734.572265625 -0.234375 l 1
 1168.04296875 771 l 1
 922.923828125 771 l 1
 599.025390625 194.715820312 l 1
 275.125 771 l 1
 30 771 l 1
EndSplineSet
EndChar

StartChar: W
Encoding: 87 87 22
Width: 1504
Flags: HW
LayerCount: 2
Fore
SplineSet
30 771 m 1
 267.060546875 -0.365234375 l 1
 284.6796875 -0.365234375 l 1
 524.748046875 -0.365234375 l 1
 542.37890625 -0.365234375 l 1
 752.337890625 561.116210938 l 1
 962.2890625 -0.365234375 l 1
 979.919921875 -0.365234375 l 1
 1219.98632812 -0.365234375 l 1
 1237.61328125 -0.365234375 l 1
 1474.66796875 771 l 1
 1279.77734375 771 l 1
 1088.53125 194.619140625 l 1
 868.732421875 771 l 1
 830.81640625 771 l 1
 673.8515625 771 l 1
 635.935546875 771 l 1
 416.13671875 194.619140625 l 1
 224.892578125 771 l 1
 30 771 l 1
EndSplineSet
EndChar

StartChar: X
Encoding: 88 88 23
Width: 1218
Flags: HW
LayerCount: 2
Fore
SplineSet
30 771 m 1
 462.984375 385.380859375 l 1
 30 -0.2353515625 l 1
 322.658203125 -0.2353515625 l 1
 609.317382812 255.05859375 l 1
 895.96875 -0.2353515625 l 1
 1188.62695312 -0.2353515625 l 1
 755.642578125 385.380859375 l 1
 1188.62695312 771 l 1
 895.96875 771 l 1
 609.310546875 515.704101562 l 1
 322.658203125 771 l 1
 30 771 l 1
EndSplineSet
EndChar

StartChar: Y
Encoding: 89 89 24
Width: 1180
Flags: HW
LayerCount: 2
Fore
SplineSet
30 771 m 1
 476.875 279.328125 l 1
 476.875 235.401367188 l 1
 476.875 -0.234375 l 1
 699.696289062 -0.234375 l 1
 699.696289062 274.865234375 l 1
 1150.63085938 771 l 1
 879.23828125 771 l 1
 590.314453125 453.119140625 l 1
 301.391601562 771 l 1
 30 771 l 1
EndSplineSet
EndChar

StartChar: Z
Encoding: 90 90 25
Width: 960
Flags: HW
LayerCount: 2
Fore
SplineSet
930.541015625 771 m 5
 30 771 l 5
 30 591.381835938 l 5
 685.725585938 591.381835938 l 5
 30 238.548828125 l 5
 30 179.3828125 l 5
 30 153.444335938 l 5
 30 -0.234375 l 5
 930.541015625 -0.234375 l 5
 930.541015625 179.3828125 l 5
 285.53515625 179.3828125 l 5
 930.541015625 526.443359375 l 5
 930.541015625 591.381835938 l 5
 930.541015625 771 l 5
EndSplineSet
EndChar

StartChar: a
Encoding: 97 97 26
Width: 785
Flags: HW
LayerCount: 2
Fore
SplineSet
244.68359375 540 m 6
 138.446289062 539.795898438 45.5859375 466.5546875 30 367.728515625 c 5
 236.28515625 367.728515625 l 5
 256.774414062 399.418945312 287.977539062 417.422851562 317.760742188 417.549804688 c 6
 468.251953125 417.549804688 l 6
 585.166015625 417.549804688 575.29296875 359.333007812 575.485351562 284.616210938 c 5
 553.41796875 309.626953125 518.376953125 326.124023438 474.754882812 331.04296875 c 4
 429.752929688 336.1171875 384.520507812 338.115234375 338.984375 338.159179688 c 4
 324.799804688 338.000976562 310.619140625 338.159179688 296.434570312 338.159179688 c 4
 250.899414062 338.095703125 205.668945312 336.1171875 160.666992188 331.04296875 c 4
 92.41796875 323.346679688 45.0068359375 287.413085938 35.7734375 234.653320312 c 4
 28.142578125 191.037109375 28.0087890625 147.205078125 35.7734375 103.149414062 c 4
 45.07421875 50.396484375 92.41796875 14.45703125 160.666992188 6.7607421875 c 4
 212.666992188 0.896484375 264.98046875 -0.8427734375 317.7109375 -0.224609375 c 4
 370.442382812 -0.8408203125 422.752929688 0.896484375 474.754882812 6.7607421875 c 4
 519.512695312 11.8076171875 555.184570312 29.0634765625 577.125976562 55.1806640625 c 5
 577.125976562 -0.224609375 l 5
 755.985351562 -0.224609375 l 5
 755.985351562 338.159179688 l 6
 755.985351562 449.6328125 659.891601562 540 541.354492188 540 c 6
 244.68359375 540 l 6
287.8125 209.685546875 m 5
 287.815429688 209.685546875 l 5
 505.600585938 209.685546875 l 5
 506.427734375 188.926757812 505.744140625 144.627929688 505.744140625 144.627929688 c 6
 500.51171875 122.830078125 479.07421875 119.44140625 447.741210938 117.290039062 c 4
 423.8671875 115.651367188 405.133789062 115.165039062 375.643554688 115.336914062 c 4
 346.155273438 115.163085938 325.708007812 115.650390625 287.817382812 117.290039062 c 4
 238.087890625 119.44140625 203.592773438 129.489257812 196.815429688 144.23828125 c 4
 191.158203125 156.5546875 191.254882812 169.478515625 196.815429688 182.004882812 c 4
 203.54296875 197.157226562 238.087890625 207.474609375 287.817382812 209.685546875 c 5
 287.8125 209.685546875 l 5
EndSplineSet
EndChar

StartChar: b
Encoding: 98 98 27
Width: 810
Flags: HW
LayerCount: 2
Fore
SplineSet
30 768 m 5
 30 1.279296875 l 5
 227.8125 1.279296875 l 5
 227.8125 54.4833984375 l 5
 266.419921875 21.3203125 316.655273438 1.279296875 371.775390625 1.279296875 c 6
 560.08203125 1.279296875 l 6
 682.400390625 1.279296875 780.875 99.7529296875 780.875 222.0703125 c 6
 780.875 316.87109375 l 6
 780.875 439.189453125 682.400390625 537.663085938 560.08203125 537.663085938 c 6
 371.775390625 537.663085938 l 6
 316.655273438 537.663085938 266.419921875 517.622070312 227.8125 484.458007812 c 5
 227.8125 768 l 5
 30 768 l 5
322.625 384.639648438 m 6
 490.786132812 384.639648438 l 6
 543.3125 384.639648438 585.59765625 342.354492188 585.59765625 289.828125 c 6
 585.59765625 249.114257812 l 6
 585.59765625 196.586914062 543.3125 154.301757812 490.786132812 154.301757812 c 6
 322.625 154.301757812 l 6
 270.098632812 154.301757812 227.8125 196.586914062 227.8125 249.114257812 c 6
 227.8125 289.828125 l 6
 227.8125 342.354492188 270.098632812 384.639648438 322.625 384.639648438 c 6
EndSplineSet
EndChar

StartChar: c
Encoding: 99 99 28
Width: 796
Flags: HW
LayerCount: 2
Fore
SplineSet
371.9296875 540 m 4
 313.490234375 539.897460938 255.438476562 536.739257812 197.686523438 528.638671875 c 4
 110.098632812 516.353515625 49.2587890625 458.994140625 37.41015625 374.775390625 c 4
 27.6162109375 305.151367188 27.4453125 235.184570312 37.41015625 164.860351562 c 4
 49.345703125 80.65234375 110.098632812 23.2822265625 197.686523438 10.998046875 c 4
 264.421875 1.6376953125 331.556640625 -1.1416015625 399.227539062 -0.154296875 c 4
 466.901367188 -1.138671875 534.036132812 1.6376953125 600.772460938 10.998046875 c 4
 688.358398438 23.2822265625 749.11328125 80.65234375 761.049804688 164.860351562 c 4
 763.572265625 182.66796875 765.432617188 200.452148438 766.666992188 218.212890625 c 5
 599.193359375 218.212890625 l 5
 592.080078125 178.5703125 558.708984375 151.583984375 510.765625 145.758789062 c 4
 473.833007812 141.272460938 436.680664062 139.938476562 399.227539062 140.413085938 c 4
 361.77734375 139.935546875 324.624023438 141.275390625 287.692382812 145.758789062 c 4
 239.216796875 151.647460938 205.595703125 179.147460938 198.9921875 219.512695312 c 4
 193.477539062 253.22265625 193.572265625 286.76171875 198.9921875 320.13671875 c 4
 205.547851562 360.506835938 239.216796875 388 287.692382812 393.887695312 c 4
 319.654296875 397.772460938 351.77734375 399.297851562 384.1171875 399.338867188 c 4
 394.19140625 399.340820312 404.265625 399.217773438 414.338867188 399.338867188 c 4
 446.6796875 399.338867188 478.802734375 397.772460938 510.765625 393.887695312 c 4
 542.75 390.002929688 568.219726562 376.666992188 583.779296875 356.478515625 c 5
 763.3046875 356.478515625 l 5
 762.594726562 362.579101562 761.90625 368.680664062 761.049804688 374.775390625 c 4
 749.201171875 458.994140625 688.358398438 516.353515625 600.772460938 528.638671875 c 4
 543.01953125 536.739257812 484.967773438 539.928710938 426.529296875 540 c 4
 408.329101562 539.747070312 390.12890625 540 371.9296875 540 c 4
EndSplineSet
EndChar

StartChar: d
Encoding: 100 100 29
Width: 810
Flags: HW
LayerCount: 2
Fore
SplineSet
780.875 767 m 5
 583.0625 767 l 5
 583.0625 483.458007812 l 5
 544.454101562 516.622070312 494.219726562 536.663085938 439.099609375 536.663085938 c 6
 250.79296875 536.663085938 l 6
 128.474609375 536.663085938 30 438.190429688 30 315.872070312 c 6
 30 221.0703125 l 6
 30 98.7529296875 128.474609375 0.279296875 250.79296875 0.279296875 c 6
 439.099609375 0.279296875 l 6
 494.219726562 0.279296875 544.454101562 20.3203125 583.0625 53.484375 c 5
 583.0625 0.279296875 l 5
 780.875 0.279296875 l 5
 780.875 767 l 5
488.25 383.639648438 m 6
 540.776367188 383.639648438 583.0625 341.35546875 583.0625 288.829101562 c 6
 583.0625 248.114257812 l 6
 583.0625 195.586914062 540.776367188 153.302734375 488.25 153.302734375 c 6
 320.088867188 153.302734375 l 6
 267.5625 153.302734375 225.27734375 195.586914062 225.27734375 248.114257812 c 6
 225.27734375 288.829101562 l 6
 225.27734375 341.35546875 267.5625 383.639648438 320.088867188 383.639648438 c 6
 488.25 383.639648438 l 6
EndSplineSet
EndChar

StartChar: e
Encoding: 101 101 30
Width: 796
Flags: HW
LayerCount: 2
Fore
SplineSet
371.251953125 540 m 6
 312.928710938 539.897460938 254.995117188 536.739257812 197.356445312 528.638671875 c 4
 109.94140625 516.353515625 49.2216796875 458.994140625 37.3955078125 374.775390625 c 4
 27.6201171875 305.151367188 27.4501953125 235.18359375 37.3955078125 164.859375 c 4
 49.3076171875 80.6513671875 109.94140625 23.283203125 197.356445312 10.998046875 c 4
 263.958984375 1.6376953125 330.962890625 -1.140625 398.500976562 -0.154296875 c 4
 466.0390625 -1.1376953125 533.040039062 1.6376953125 599.64453125 10.998046875 c 4
 687.05859375 23.283203125 747.692382812 72.6513671875 759.603515625 156.859375 c 4
 760.061523438 160.096679688 760.387695312 163.329101562 760.802734375 166.564453125 c 5
 575.125 166.564453125 l 5
 559.458007812 151.184570312 536.973632812 149.063476562 509.81640625 145.7578125 c 4
 472.954101562 141.271484375 435.879882812 139.940429688 398.500976562 140.4140625 c 4
 361.123046875 139.9375 324.040039062 141.274414062 287.182617188 145.7578125 c 4
 248.044921875 150.521484375 218.624023438 179.439453125 205.317382812 207.859375 c 5
 398.400390625 207.859375 l 5
 591.681640625 207.859375 l 5
 763.444335938 207.859375 l 5
 764.829101562 224.974609375 765.782226562 232.072265625 766.338867188 249.15234375 c 5
 766.376953125 249.15234375 l 5
 766.376953125 249.72265625 766.376953125 250.291992188 766.415039062 250.861328125 c 4
 766.501953125 253.625 766.599609375 256.389648438 766.6640625 259.15234375 c 5
 766.55078125 259.15234375 l 5
 766.588867188 261.317382812 766.649414062 263.483398438 766.6640625 265.646484375 c 6
 766.6640625 274.23828125 l 6
 766.584960938 286.890625 765.9609375 299.525390625 765.182617188 312.15234375 c 5
 765.2734375 312.15234375 l 5
 765.16796875 313.694335938 764.994140625 315.805664062 764.87890625 317.451171875 c 4
 764.819335938 318.349609375 764.78515625 319.249023438 764.724609375 320.146484375 c 6
 764.678710938 320.146484375 l 5
 763.462890625 337.600585938 761.853515625 358.912109375 759.626953125 374.775390625 c 4
 747.801757812 458.994140625 687.081054688 516.353515625 599.666992188 528.638671875 c 4
 542.026367188 536.739257812 484.094726562 539.928710938 425.771484375 540 c 4
 407.604492188 539.747070312 389.44140625 540 371.274414062 540 c 6
 371.251953125 540 l 6
383.416992188 399.337890625 m 4
 393.470703125 399.340820312 403.52734375 399.216796875 413.578125 399.337890625 c 4
 445.856445312 399.337890625 477.91796875 397.770507812 509.81640625 393.88671875 c 4
 554.959960938 388.392578125 587.21484375 357.112304688 596.646484375 320.154296875 c 5
 233.872070312 320.15234375 l 5
 198.662109375 320.15234375 l 5
 205.209960938 360.514648438 238.809570312 387.999023438 287.182617188 393.88671875 c 4
 319.080078125 397.770507812 351.140625 399.297851562 383.416992188 399.337890625 c 4
EndSplineSet
EndChar

StartChar: f
Encoding: 102 102 31
Width: 531
Flags: HW
LayerCount: 2
Fore
SplineSet
278.788085938 751.997070312 m 6
 261.303710938 751.705078125 244.463867188 748.248046875 229.0625 742.278320312 c 4
 175.49609375 722.615234375 137.301757812 672.11328125 136.913085938 612.83203125 c 4
 136.8515625 612.80078125 136.913085938 577.282226562 136.913085938 577.282226562 c 5
 136.913085938 531.563476562 l 5
 30 531.563476562 l 5
 30 410.95703125 l 5
 136.913085938 410.95703125 l 5
 136.913085938 -0.0693359375 l 5
 321.213867188 -0.0693359375 l 5
 321.213867188 410.95703125 l 5
 501.146484375 410.95703125 l 5
 501.146484375 531.563476562 l 5
 321.213867188 531.563476562 l 5
 321.213867188 577.084960938 l 5
 321.213867188 577.28515625 l 6
 321.213867188 596.905273438 337.456054688 612.8359375 357.458984375 612.8359375 c 5
 357.45703125 612.834960938 501.146484375 612.8359375 501.146484375 612.8359375 c 5
 501.146484375 752 l 5
 321.213867188 752 l 5
 278.788085938 751.997070312 l 6
EndSplineSet
EndChar

StartChar: g
Encoding: 103 103 32
Width: 806
Flags: HW
LayerCount: 2
Fore
SplineSet
308.514648438 514 m 4
 260.9140625 513.909179688 213.62890625 510.930664062 166.587890625 503.303710938 c 4
 95.2451171875 491.73828125 45.6875 432.73828125 36.03515625 353.452148438 c 0
 28.05859375 287.905273438 27.9189453125 222.03515625 36.03515625 155.829101562 c 0
 45.7578125 76.5517578125 95.2451171875 22.5419921875 166.587890625 10.9765625 c 0
 220.9453125 2.1650390625 275.629882812 -0.451171875 330.750976562 0.4775390625 c 0
 385.873046875 -0.4482421875 440.555664062 2.1650390625 494.915039062 10.9765625 c 0
 529.168945312 16.529296875 558.305664062 31.9541015625 580.499023438 55.173828125 c 1
 580.499023438 -20.4853515625 l 1
 580.26171875 -20.4853515625 l 1
 580.412109375 -22.2109375 580.4921875 -23.939453125 580.499023438 -25.6708984375 c 0
 580.435546875 -64.8818359375 544.124023438 -116.803710938 498.916015625 -117.33984375 c 2
 267.090820312 -117.33984375 l 2
 228.370117188 -117.271484375 236.8515625 -67.830078125 236.322265625 -31.1572265625 c 1
 60.3408203125 -31.1572265625 l 1
 60.3408203125 -97.33984375 l 1
 60.3408203125 -107.340820312 l 2
 60.3388671875 -196.520507812 131.728515625 -268.81640625 219.79296875 -268.817382812 c 2
 607.536132812 -268.817382812 l 2
 701.0546875 -268.815429688 776.865234375 -192.04296875 776.865234375 -97.33984375 c 2
 776.865234375 514 l 5
 580.499023438 514 l 5
 580.499023438 454.138671875 l 1
 558.299804688 477.341796875 529.154296875 497.75390625 494.915039062 503.303710938 c 4
 447.87109375 510.930664062 400.592773438 513.932617188 352.9921875 514 c 4
 338.165039062 513.7578125 323.340820312 514 308.514648438 514 c 4
392.245117188 369.934570312 m 0
 400.623046875 369.934570312 408.997070312 369.828125 417.373046875 369.934570312 c 0
 444.26953125 369.934570312 470.984375 368.541015625 497.564453125 365.083984375 c 0
 537.875976562 359.842773438 565.876953125 335.3671875 571.330078125 299.4296875 c 0
 575.836914062 269.720703125 575.915039062 239.865234375 571.330078125 209.857421875 c 0
 565.836914062 173.92578125 537.875976562 149.446289062 497.564453125 144.203125 c 0
 466.8515625 140.209960938 435.955078125 139.02734375 404.810546875 139.447265625 c 0
 373.666015625 139.025390625 342.767578125 140.209960938 312.0546875 144.203125 c 0
 271.743164062 149.446289062 243.782226562 173.92578125 238.2890625 209.857421875 c 0
 233.704101562 239.865234375 233.78125 269.720703125 238.2890625 299.4296875 c 0
 243.743164062 335.3671875 271.743164062 359.842773438 312.0546875 365.083984375 c 0
 338.633789062 368.541015625 365.350585938 369.887695312 392.245117188 369.934570312 c 0
EndSplineSet
EndChar

StartChar: h
Encoding: 104 104 33
Width: 783
Flags: HW
LayerCount: 2
Fore
SplineSet
30 767 m 5
 30 0.279296875 l 5
 228.288085938 0.279296875 l 5
 228.288085938 327.368164062 l 5
 260.74609375 362.264648438 302.28515625 383.376953125 347.380859375 383.639648438 c 5
 347.240234375 383.555664062 494.96875 383.639648438 494.96875 383.639648438 c 6
 537.852539062 383.639648438 572.672851562 337.825195312 572.672851562 281.395507812 c 5
 572.669921875 281.395507812 572.672851562 0.279296875 572.672851562 0.279296875 c 5
 753.330078125 0.279296875 l 5
 753.330078125 361.129882812 l 6
 753.330078125 472.275390625 654.891601562 562.51171875 533.642578125 562.51171875 c 5
 429.931640625 562.51171875 l 6
 349.931640625 562.387695312 278.0078125 530.650390625 228.288085938 480.090820312 c 4
 228.262695312 479.987304688 228.288085938 767 228.288085938 767 c 5
 30 767 l 5
EndSplineSet
EndChar

StartChar: i
Encoding: 105 105 34
Width: 265
Flags: HW
LayerCount: 2
Fore
SplineSet
30.78125 752 m 5
 30.78125 564.159179688 l 5
 235.528320312 564.159179688 l 5
 235.528320312 752 l 5
 30.78125 752 l 5
30 524.474609375 m 5
 30.78125 -0.0712890625 l 5
 235.528320312 -0.0712890625 l 5
 234.747070312 524.474609375 l 5
 30 524.474609375 l 5
EndSplineSet
EndChar

StartChar: j
Encoding: 106 106 35
Width: 394
Flags: HW
LayerCount: 2
Fore
SplineSet
160.111328125 760 m 5
 160.111328125 570.97265625 l 5
 364.859375 570.97265625 l 5
 364.859375 760 l 5
 160.111328125 760 l 5
159.330078125 531.0390625 m 5
 160.013671875 46.50390625 l 5
 160.013671875 46.556640625 l 5
 160.013671875 46.556640625 l 5
 159.880859375 23.4453125 141.598632812 4.359375 118.076171875 2.6201171875 c 6
 30 2.4189453125 l 5
 30 -197.59765625 l 5
 160.126953125 -197.298828125 l 6
 273.170898438 -197.041992188 364.875 -107.307617188 364.875 3.18359375 c 5
 364.865234375 3.18359375 364.09375 531.041992188 364.09375 531.041992188 c 5
 159.330078125 531.0390625 l 5
EndSplineSet
EndChar

StartChar: k
Encoding: 107 107 36
Width: 703
Flags: HW
LayerCount: 2
Fore
SplineSet
30 767 m 5
 30 556.930664062 l 5
 30 501.6796875 l 5
 30 66.44140625 l 5
 30 11.1904296875 l 5
 30 0.279296875 l 5
 221.5078125 0.279296875 l 5
 221.5078125 53.427734375 l 5
 221.5078125 224.270507812 l 5
 272.447265625 224.270507812 l 5
 327.081054688 162.513671875 l 5
 470.59375 0.279296875 l 5
 673.79296875 0.279296875 l 5
 428.684570312 277.370117188 l 5
 673.79296875 554.4609375 l 5
 470.59375 554.4609375 l 5
 327.081054688 392.2265625 l 5
 306.478515625 368.936523438 l 5
 221.5078125 368.936523438 l 5
 221.5078125 374.233398438 l 5
 221.5078125 514.693359375 l 5
 221.5078125 767 l 5
 30 767 l 5
221.5078125 281.86328125 m 5
 225.477539062 277.370117188 l 5
 221.5078125 272.875 l 5
 221.5078125 279.633789062 l 5
 221.5078125 281.86328125 l 5
EndSplineSet
EndChar

StartChar: l
Encoding: 108 108 37
Width: 251
Flags: HW
LayerCount: 2
Fore
SplineSet
30 767 m 5
 30 0.2744140625 l 5
 221.5078125 0.2744140625 l 5
 221.5078125 767 l 5
 30 767 l 5
EndSplineSet
EndChar

StartChar: m
Encoding: 109 109 38
Width: 1215
Flags: HW
LayerCount: 2
Fore
SplineSet
439.518554688 540 m 5
 353.91015625 539.927734375 272.529296875 506.64453125 216.4140625 448.70703125 c 5
 216.4140625 540 l 5
 30 540 l 5
 30.5 -0.3427734375 l 5
 216.9140625 -0.3427734375 l 5
 216.4140625 250.227539062 l 6
 216.493164062 319.806640625 273.470703125 375.801757812 344.23046875 375.801757812 c 6
 397.764648438 375.801757812 l 6
 468.575195312 375.801757812 525.581054688 319.727539062 525.581054688 250.079101562 c 6
 525.581054688 250.079101562 526.081054688 172.5 526.081054688 -0.3427734375 c 5
 712.4921875 -0.3427734375 l 5
 711.9921875 173.327148438 l 5
 711.9921875 310.459960938 l 5
 734.948242188 343.69140625 773.680664062 365.451171875 817.780273438 365.451171875 c 6
 871.315429688 365.451171875 l 6
 942.125976562 365.451171875 999.131835938 309.376953125 999.131835938 239.729492188 c 6
 999.131835938 -0.3427734375 l 5
 1185.54101562 -0.3427734375 l 5
 1185.54101562 162.977539062 l 5
 1185.54101562 367.512695312 l 6
 1185.54101562 447.411132812 1083.14160156 505.567382812 999.131835938 528.478515625 c 4
 971.235351562 536.1015625 942.232421875 539.983398438 913.068359375 540 c 4
 827.459960938 539.927734375 746.079101562 496.295898438 689.963867188 438.358398438 c 5
 689.963867188 438.013671875 l 5
 655.356445312 482.717773438 585.838867188 512.044921875 525.581054688 528.477539062 c 4
 497.685546875 536.099609375 468.68359375 539.982421875 439.518554688 539.998046875 c 5
 439.518554688 540 l 5
EndSplineSet
EndChar

StartChar: n
Encoding: 110 110 39
Width: 746
Flags: HW
LayerCount: 2
Fore
SplineSet
442.396484375 540 m 4
 356.186523438 539.943359375 274.233398438 505.994140625 217.723632812 446.924804688 c 5
 217.723632812 540 l 5
 30 540 l 5
 30 -0.3427734375 l 5
 217.723632812 -0.3427734375 l 5
 217.723632812 244.569335938 l 6
 217.802734375 315.506835938 275.180664062 372.595703125 346.438476562 372.595703125 c 6
 400.348632812 372.595703125 l 6
 471.657226562 372.595703125 529.0625 315.42578125 529.0625 244.416992188 c 6
 529.0625 35.4912109375 l 5
 529.0625 11.5439453125 l 5
 529.0625 -0.3427734375 l 5
 716.783203125 -0.3427734375 l 5
 716.783203125 166.16796875 l 5
 716.783203125 374.696289062 l 6
 716.783203125 456.155273438 613.663085938 504.895507812 529.0625 528.25390625 c 4
 500.969726562 536.025390625 471.765625 539.983398438 442.396484375 540 c 4
EndSplineSet
EndChar

StartChar: o
Encoding: 111 111 40
Width: 804
Flags: HW
LayerCount: 2
Fore
SplineSet
374.6875 540 m 4
 315.776367188 539.8984375 257.258789062 536.73828125 199.040039062 528.637695312 c 4
 110.745117188 516.353515625 49.4150390625 458.994140625 37.4697265625 374.775390625 c 4
 27.5966796875 305.150390625 27.423828125 235.184570312 37.4697265625 164.860351562 c 4
 49.501953125 80.6513671875 110.745117188 23.2822265625 199.040039062 10.998046875 c 4
 266.3125 1.6376953125 333.991210938 -1.1416015625 402.209960938 -0.154296875 c 4
 470.428710938 -1.138671875 538.103515625 1.6376953125 605.377929688 10.998046875 c 4
 693.672851562 23.2822265625 754.916992188 80.6513671875 766.948242188 164.860351562 c 4
 776.9921875 235.184570312 776.819335938 305.150390625 766.948242188 374.775390625 c 4
 755.004882812 458.994140625 693.672851562 516.353515625 605.377929688 528.637695312 c 4
 547.158203125 536.73828125 488.643554688 539.928710938 429.732421875 540 c 4
 411.3828125 539.747070312 393.036132812 540 374.6875 540 c 4
386.974609375 399.337890625 m 4
 397.12890625 399.340820312 407.287109375 399.216796875 417.440429688 399.337890625 c 4
 450.04296875 399.337890625 482.426757812 397.771484375 514.646484375 393.887695312 c 4
 563.510742188 388 597.452148438 360.5078125 604.0625 320.137695312 c 4
 609.529296875 286.762695312 609.624023438 253.223632812 604.0625 219.513671875 c 4
 597.404296875 179.1484375 563.510742188 151.647460938 514.646484375 145.758789062 c 4
 477.4140625 141.271484375 439.963867188 139.939453125 402.209960938 140.413085938 c 4
 364.455078125 139.936523438 327.000976562 141.275390625 289.771484375 145.758789062 c 4
 240.905273438 151.647460938 207.01171875 179.1484375 200.356445312 219.513671875 c 4
 194.794921875 253.223632812 194.890625 286.762695312 200.356445312 320.137695312 c 4
 206.963867188 360.5078125 240.905273438 388 289.771484375 393.887695312 c 4
 321.991210938 397.771484375 354.373046875 399.297851562 386.974609375 399.337890625 c 4
EndSplineSet
EndChar

StartChar: p
Encoding: 112 112 41
Width: 810
Flags: HW
LayerCount: 2
Fore
SplineSet
30 -229.720703125 m 1
 227.814453125 -229.720703125 l 1
 227.814453125 53.8212890625 l 1
 266.421875 20.6572265625 316.65625 0.6162109375 371.779296875 0.6162109375 c 2
 560.083984375 0.6162109375 l 2
 682.404296875 0.6162109375 780.87890625 99.0888671875 780.87890625 221.407226562 c 2
 780.87890625 316.208007812 l 2
 780.87890625 438.525390625 682.404296875 537 560.083984375 537 c 2
 371.779296875 537 l 2
 316.65625 537 266.421875 516.958984375 227.814453125 483.794921875 c 1
 227.814453125 537 l 1
 30 537 l 1
 30 -229.720703125 l 1
322.626953125 153.639648438 m 2
 270.099609375 153.639648438 227.814453125 195.923828125 227.814453125 248.450195312 c 2
 227.814453125 289.165039062 l 2
 227.814453125 341.69140625 270.099609375 383.9765625 322.626953125 383.9765625 c 2
 490.7890625 383.9765625 l 2
 543.314453125 383.9765625 585.6015625 341.69140625 585.6015625 289.165039062 c 2
 585.6015625 248.450195312 l 2
 585.6015625 195.923828125 543.314453125 153.639648438 490.7890625 153.639648438 c 2
 322.626953125 153.639648438 l 2
EndSplineSet
EndChar

StartChar: q
Encoding: 113 113 42
Width: 810
Flags: HW
LayerCount: 2
Fore
SplineSet
780.87890625 -230.720703125 m 5
 780.87890625 536 l 5
 583.064453125 536 l 5
 583.064453125 482.794921875 l 5
 544.458007812 515.958984375 494.221679688 536 439.100585938 536 c 6
 250.79296875 536 l 6
 128.473632812 536 30 437.525390625 30 315.208007812 c 6
 30 220.407226562 l 6
 30 98.0888671875 128.473632812 -0.3837890625 250.79296875 -0.3837890625 c 6
 439.100585938 -0.3837890625 l 6
 494.221679688 -0.3837890625 544.458007812 19.6572265625 583.064453125 52.8212890625 c 5
 583.064453125 -230.720703125 l 5
 780.87890625 -230.720703125 l 5
488.252929688 152.639648438 m 6
 320.090820312 152.639648438 l 6
 267.5625 152.639648438 225.27734375 194.923828125 225.27734375 247.450195312 c 6
 225.27734375 288.165039062 l 6
 225.27734375 340.69140625 267.5625 382.9765625 320.090820312 382.9765625 c 6
 488.252929688 382.9765625 l 6
 540.779296875 382.9765625 583.064453125 340.69140625 583.064453125 288.165039062 c 6
 583.064453125 247.450195312 l 6
 583.064453125 194.923828125 540.779296875 152.639648438 488.252929688 152.639648438 c 6
EndSplineSet
EndChar

StartChar: r
Encoding: 114 114 43
Width: 684
Flags: HW
LayerCount: 2
Fore
SplineSet
30 540 m 5
 30 -0.3427734375 l 5
 223.248046875 -0.3427734375 l 5
 223.248046875 248.904296875 l 5
 250.783203125 317.29296875 296.831054688 358.3828125 346.150390625 358.56640625 c 6
 417.053710938 358.56640625 l 6
 436.939453125 358.56640625 453.127929688 331.834960938 453.369140625 298.599609375 c 6
 453.573242188 269.825195312 l 5
 653.725585938 269.825195312 l 5
 653.959960938 288.735351562 l 6
 655.672851562 427.01171875 623.140625 540 399.243164062 540 c 6
 380.266601562 540 l 6
 293.633789062 539.743164062 274.993164062 499.7265625 223.24609375 432.01171875 c 5
 223.24609375 540 l 5
 30 540 l 5
EndSplineSet
EndChar

StartChar: s
Encoding: 115 115 44
Width: 768
Flags: HW
LayerCount: 2
Fore
SplineSet
197.259765625 536 m 6
 104.6015625 536 30.005859375 464.765625 30.005859375 376.280273438 c 4
 30.005859375 287.793945312 104.6015625 216.559570312 197.259765625 216.559570312 c 6
 526.85546875 216.559570312 l 6
 547.4140625 212.010742188 562.6640625 194.516601562 562.6640625 173.4609375 c 6
 562.6640625 169.69921875 l 6
 562.6640625 145.1640625 541.98046875 125.41015625 516.28515625 125.41015625 c 6
 255.390625 125.41015625 l 6
 229.69921875 125.41015625 209.013671875 145.1640625 209.013671875 169.69921875 c 6
 209.013671875 173.4609375 l 6
 209.013671875 177.00390625 209.48828125 180.4296875 210.30078125 183.727539062 c 5
 31.833984375 183.727539062 l 6
 30.640625 175.985351562 30 168.063476562 30 159.994140625 c 4
 30 71.5087890625 104.59765625 0.2744140625 197.2578125 0.2744140625 c 6
 570.81640625 0.2744140625 l 6
 663.474609375 0.2744140625 738.068359375 71.5087890625 738.068359375 159.994140625 c 4
 738.068359375 248.478515625 663.474609375 319.712890625 570.81640625 319.712890625 c 6
 241.220703125 319.712890625 l 6
 220.662109375 324.264648438 205.412109375 341.755859375 205.412109375 362.813476562 c 6
 205.412109375 366.575195312 l 6
 205.412109375 391.110351562 226.095703125 410.86328125 251.7890625 410.86328125 c 6
 512.68359375 410.86328125 l 6
 538.37890625 410.86328125 559.0625 391.110351562 559.0625 366.575195312 c 6
 559.0625 362.813476562 l 6
 559.0625 359.26953125 558.5859375 355.844726562 557.775390625 352.546875 c 5
 736.23828125 352.546875 l 6
 737.43359375 360.2890625 738.07421875 368.2109375 738.07421875 376.280273438 c 4
 738.07421875 464.765625 663.4765625 536 570.818359375 536 c 6
 197.259765625 536 l 6
EndSplineSet
EndChar

StartChar: t
Encoding: 116 116 45
Width: 688
Flags: HW
LayerCount: 2
Fore
SplineSet
143.73828125 751 m 5
 143.73828125 637.076171875 l 5
 30 637.076171875 l 5
 30 514.766601562 l 5
 143.73828125 514.766601562 l 5
 144.014648438 151.969726562 l 6
 144.015625 67.4482421875 214.001953125 -1.0693359375 300.3359375 -1.0712890625 c 6
 318.413085938 -1.0712890625 l 5
 336.4921875 -1.0712890625 l 5
 411.317382812 -1.0712890625 l 6
 547.630859375 -1.072265625 658.13671875 75.8740234375 658.13671875 170.791015625 c 6
 658.13671875 246.1328125 l 5
 474.62109375 246.1328125 l 5
 474.62109375 201.645507812 l 6
 474.62109375 174.208984375 457.498046875 151.96875 436.375976562 151.969726562 c 6
 374.256835938 151.969726562 l 6
 353.399414062 151.971679688 336.4921875 173.935546875 336.4921875 201.02734375 c 6
 336.4921875 246.1328125 l 5
 336.215820312 514.766601562 l 5
 642.4296875 514.766601562 l 5
 642.4296875 637.076171875 l 5
 336.215820312 637.076171875 l 5
 336.215820312 751 l 5
 143.73828125 751 l 5
EndSplineSet
EndChar

StartChar: u
Encoding: 117 117 46
Width: 746
Flags: HW
LayerCount: 2
Fore
SplineSet
304.38671875 -0.3427734375 m 4
 390.596679688 -0.2861328125 472.549804688 33.6630859375 529.059570312 92.732421875 c 5
 529.059570312 -0.3427734375 l 5
 716.783203125 -0.3427734375 l 5
 716.783203125 540 l 5
 529.059570312 540 l 5
 529.059570312 295.087890625 l 6
 528.98046875 224.150390625 471.6015625 167.061523438 400.344726562 167.061523438 c 6
 346.434570312 167.061523438 l 6
 275.125976562 167.061523438 217.720703125 224.231445312 217.720703125 295.240234375 c 6
 217.720703125 504.166015625 l 5
 217.720703125 528.11328125 l 5
 217.720703125 540 l 5
 30 540 l 5
 30 373.489257812 l 5
 30 164.9609375 l 6
 30 83.501953125 133.119140625 34.76171875 217.720703125 11.4033203125 c 4
 245.8125 3.6318359375 275.017578125 -0.326171875 304.38671875 -0.3427734375 c 4
EndSplineSet
EndChar

StartChar: v
Encoding: 118 118 47
Width: 881
Flags: HW
LayerCount: 2
Fore
SplineSet
30 540 m 5
 318.90234375 -0.3427734375 l 5
 340.779296875 -0.3427734375 l 5
 536.501953125 -0.3427734375 l 5
 558.380859375 -0.3427734375 l 5
 851.5 540 l 5
 612.021484375 540 l 5
 437.380859375 168.421875 l 5
 236.458984375 540 l 5
 30 540 l 5
EndSplineSet
EndChar

StartChar: w
Encoding: 119 119 48
Width: 1201
Flags: HW
LayerCount: 2
Fore
SplineSet
30 540 m 5
 248.818359375 -0.3427734375 l 5
 270.692382812 -0.3427734375 l 5
 462.27734375 -0.3427734375 l 5
 484.157226562 -0.3427734375 l 5
 605.966796875 344.77734375 l 5
 745.724609375 -0.3427734375 l 5
 767.599609375 -0.3427734375 l 5
 959.185546875 -0.3427734375 l 5
 981.059570312 -0.3427734375 l 5
 1171.77539062 540 l 5
 1001.69042969 540 l 5
 854.4921875 168.240234375 l 5
 697.092773438 540 l 5
 674.868164062 540 l 5
 526.907226562 540 l 5
 504.782226562 540 l 5
 357.5859375 168.240234375 l 5
 200.19140625 540 l 5
 30 540 l 5
EndSplineSet
EndChar

StartChar: x
Encoding: 120 120 49
Width: 810
Flags: HW
LayerCount: 2
Fore
SplineSet
30 540 m 5
 51.39453125 518.615234375 l 5
 108.375 461.670898438 l 5
 300.33203125 269.83203125 l 5
 30 -0.3427734375 l 5
 240.30078125 -0.3427734375 l 5
 405.48046875 164.758789062 l 5
 570.681640625 -0.3427734375 l 5
 780.96484375 -0.3427734375 l 5
 510.6328125 269.83203125 l 5
 780.96484375 540 l 5
 570.681640625 540 l 5
 405.48046875 374.8984375 l 5
 240.30078125 540 l 5
 30 540 l 5
EndSplineSet
EndChar

StartChar: y
Encoding: 121 121 50
Width: 881
Flags: HW
LayerCount: 2
Fore
SplineSet
30 541 m 1
 322.447265625 -0.2275390625 l 1
 344.327148438 -0.2275390625 l 1
 355.701171875 -0.2275390625 l 1
 354.989257812 -1.59375 l 1
 341.088867188 -28.4033203125 l 2
 322.470703125 -64.3037109375 282.345703125 -82.564453125 244.532226562 -82.564453125 c 2
 226.756835938 -82.564453125 l 1
 156.479492188 -218.087890625 l 1
 242.720703125 -218.087890625 l 1
 345.098632812 -218.087890625 l 2
 401.640625 -218.086914062 470.037109375 -174.56640625 497.875976562 -120.885742188 c 2
 851.498046875 541 l 1
 612.021484375 541 l 1
 437.375976562 168.811523438 l 1
 236.45703125 541 l 1
 30 541 l 1
EndSplineSet
EndChar

StartChar: z
Encoding: 122 122 51
Width: 730
Flags: HW
LayerCount: 2
Fore
SplineSet
682.951171875 540 m 5
 30 540 l 5
 30 400.634765625 l 5
 476.45703125 400.634765625 l 5
 30 175.515625 l 5
 30 130.197265625 l 5
 30 112.609375 l 5
 30 -0.3427734375 l 5
 700.578125 -0.3427734375 l 5
 700.578125 139.008789062 l 5
 261.83203125 139.008789062 l 5
 700.572265625 360.220703125 l 5
 700.572265625 409.442382812 l 5
 700.572265625 454.698242188 l 5
 700.572265625 540 l 5
 682.951171875 540 l 5
EndSplineSet
EndChar

StartChar: one
Encoding: 49 49 52
Width: 402
Flags: HW
LayerCount: 2
Fore
SplineSet
79.6953125 770 m 5
 30 623.056640625 l 5
 185.563476562 623.0546875 l 5
 185.563476562 0.5400390625 l 5
 372.1484375 0.5400390625 l 5
 372.1484375 770 l 5
 198.30859375 770 l 5
 79.6953125 770 l 5
EndSplineSet
EndChar

StartChar: two
Encoding: 50 50 53
Width: 978
Flags: HW
LayerCount: 2
Fore
SplineSet
451.940429688 767 m 6
 378.723632812 766.927734375 305.993164062 763.7109375 233.633789062 755.540039062 c 4
 123.895507812 743.1484375 47.6669921875 685.291992188 32.8251953125 600.344726562 c 4
 31.75 594.197265625 30.888671875 588.041992188 30 581.889648438 c 6
 30 500.579101562 l 5
 254.923828125 500.579101562 l 5
 254.610351562 549.40234375 l 6
 254.515625 566.970703125 276.471679688 603.583984375 346.405273438 609.623046875 c 4
 386.515625 613.086914062 426.69921875 615.120117188 467.217773438 615.120117188 c 4
 479.840820312 614.999023438 492.4609375 615.123046875 505.080078125 615.120117188 c 4
 545.602539062 615.079101562 585.845703125 613.541015625 625.893554688 609.623046875 c 4
 686.625 603.68359375 728.8125 575.953125 737.0234375 535.233398438 c 4
 739.958984375 520.6875 741.565429688 516.109375 741.979492188 501.500976562 c 4
 741.569335938 486.8828125 739.958984375 472.293945312 737.021484375 457.73828125 c 4
 728.810546875 417.017578125 686.623046875 407.280273438 625.891601562 401.340820312 c 4
 585.844726562 397.423828125 545.600585938 395.883789062 505.078125 395.84375 c 4
 492.458984375 395.84375 479.838867188 395.96875 467.215820312 395.84375 c 4
 386.323242188 397.01171875 305.432617188 398.40625 224.540039062 399.53515625 c 5
 224.540039062 399.53515625 l 5
 46.896484375 399.53515625 36.4169921875 338.462890625 36.4140625 194.681640625 c 6
 36.412109375 85.70703125 l 5
 36.4140625 85.70703125 l 5
 36.4140625 1.0908203125 l 5
 948.743164062 1.0908203125 l 5
 948.743164062 172.348632812 l 5
 244.8359375 172.348632812 l 5
 244.298828125 236.151367188 l 6
 244.189453125 245.3046875 253.49609375 253.907226562 267.919921875 253.907226562 c 6
 267.921875 253.907226562 l 5
 467.891601562 253.963867188 l 5
 467.891601562 254.008789062 l 5
 485.377929688 254.0546875 502.864257812 253.963867188 520.352539062 253.963867188 c 4
 593.5703125 254.065429688 666.298828125 257.252929688 738.659179688 265.423828125 c 4
 848.397460938 277.814453125 924.623046875 317.677734375 939.46484375 402.625976562 c 4
 944.803710938 433.1796875 947.720703125 463.803710938 948.434570312 494.489257812 c 5
 948.745117188 494.489257812 l 5
 948.745117188 496.8359375 948.616210938 499.178710938 948.58984375 501.524414062 c 4
 948.627929688 503.84375 948.745117188 506.161132812 948.745117188 508.48046875 c 5
 948.438476562 508.48046875 l 5
 947.723632812 539.166992188 944.807617188 569.790039062 939.46875 600.344726562 c 4
 924.626953125 685.291992188 848.400390625 743.1484375 738.662109375 755.5390625 c 4
 666.302734375 763.709960938 593.57421875 766.897460938 520.356445312 767 c 4
 497.55078125 767 474.75 766.7421875 451.943359375 767 c 6
 451.940429688 767 l 6
EndSplineSet
EndChar

StartChar: three
Encoding: 51 51 54
Width: 976
Flags: HW
LayerCount: 2
Fore
SplineSet
450.799804688 769 m 6
 377.78125 768.935546875 305.248046875 766.14453125 233.084960938 759.05078125 c 4
 123.643554688 748.29296875 47.6201171875 698.067382812 32.8193359375 624.3203125 c 4
 31.74609375 618.983398438 30.88671875 613.639648438 30 608.297851562 c 6
 30 537.708984375 l 5
 254.31640625 537.708984375 l 5
 254.002929688 568.776367188 l 6
 253.908203125 584.02734375 275.805664062 615.813476562 345.549804688 621.056640625 c 4
 385.55078125 624.063476562 425.625 625.829101562 466.033203125 625.829101562 c 4
 478.623046875 625.723632812 491.209960938 625.831054688 503.794921875 625.829101562 c 4
 544.20703125 625.791015625 584.342773438 624.45703125 624.282226562 621.056640625 c 4
 684.849609375 615.900390625 726.921875 591.82421875 735.111328125 556.473632812 c 4
 738.580078125 534.623046875 739.552734375 520.592773438 735.109375 500.515625 c 4
 726.919921875 465.1640625 701.635742188 463.502929688 632.672851562 460.5546875 c 4
 608.827148438 459.536132812 498.159179688 459.6640625 492.055664062 459.227539062 c 6
 492.055664062 453.114257812 l 5
 492.055664062 317.201171875 l 5
 492.055664062 311.087890625 l 6
 498.159179688 310.651367188 588.145507812 312.657226562 632.672851562 309.760742188 c 4
 701.552734375 305.280273438 726.919921875 305.151367188 735.109375 269.80078125 c 4
 741.455078125 246.787109375 739.861328125 240.525390625 735.111328125 213.841796875 c 4
 726.921875 178.491210938 684.849609375 160.415039062 624.282226562 155.258789062 c 4
 584.342773438 151.858398438 544.20703125 150.522460938 503.794921875 150.486328125 c 4
 491.209960938 150.484375 478.623046875 150.591796875 466.033203125 150.486328125 c 4
 425.625 150.486328125 385.55078125 152.251953125 345.549804688 155.258789062 c 4
 275.805664062 160.502929688 253.908203125 192.288085938 254.002929688 207.5390625 c 6
 254.31640625 232.606445312 l 5
 30 232.606445312 l 5
 30 162.017578125 l 6
 30.88671875 156.67578125 31.74609375 151.333007812 32.8193359375 145.995117188 c 4
 47.6201171875 72.2490234375 123.643554688 22.0224609375 233.084960938 11.2646484375 c 4
 305.248046875 4.1708984375 377.78125 1.3779296875 450.799804688 1.3154296875 c 6
 450.801757812 1.3154296875 l 6
 473.546875 1.5380859375 496.287109375 1.3154296875 519.030273438 1.3154296875 c 4
 592.05078125 1.40625 664.581054688 4.1708984375 736.745117188 11.2646484375 c 4
 846.1875 22.021484375 922.20703125 72.25 937.008789062 145.997070312 c 4
 942.333007812 172.522460938 945.2421875 199.106445312 945.956054688 225.747070312 c 5
 946.26171875 225.747070312 l 5
 946.26171875 227.76171875 946.14453125 229.772460938 946.106445312 231.786132812 c 4
 946.14453125 233.822265625 946.26171875 235.857421875 946.26171875 237.89453125 c 5
 945.952148438 237.89453125 l 5
 945.239257812 264.534179688 942.330078125 291.120117188 937.004882812 317.64453125 c 4
 931.426757812 345.440429688 917.134765625 367.6640625 895.65234375 385.157226562 c 5
 917.134765625 402.651367188 931.426757812 424.875976562 937.004882812 452.670898438 c 4
 942.330078125 479.1953125 945.239257812 505.78125 945.952148438 532.420898438 c 5
 946.26171875 532.420898438 l 5
 946.26171875 534.458007812 946.1328125 536.493164062 946.106445312 538.529296875 c 4
 946.14453125 540.54296875 946.26171875 542.553710938 946.26171875 544.568359375 c 5
 945.956054688 544.568359375 l 5
 945.2421875 571.208007812 942.333007812 597.79296875 937.008789062 624.318359375 c 4
 922.20703125 698.065429688 846.1875 748.293945312 736.745117188 759.05078125 c 4
 664.581054688 766.14453125 592.05078125 768.912109375 519.030273438 769 c 4
 496.287109375 769 473.546875 768.77734375 450.801757812 769 c 6
 450.799804688 769 l 6
EndSplineSet
EndChar

StartChar: four
Encoding: 52 52 55
Width: 1001
Flags: HW
LayerCount: 2
Fore
SplineSet
672.618164062 771 m 5
 30 400.893554688 l 5
 30 237.65234375 l 5
 672.618164062 237.65234375 l 5
 672.618164062 -0.2412109375 l 5
 871.977539062 -0.2412109375 l 5
 871.977539062 237.65234375 l 5
 971.8828125 237.65234375 l 5
 971.8828125 400.893554688 l 5
 871.977539062 400.893554688 l 5
 871.977539062 771 l 5
 672.618164062 771 l 5
672.618164062 572.219726562 m 5
 672.618164062 400.893554688 l 5
 375.141601562 400.893554688 l 5
 672.618164062 572.219726562 l 5
EndSplineSet
EndChar

StartChar: five
Encoding: 53 53 56
Width: 978
Flags: HW
LayerCount: 2
Fore
SplineSet
36.412109375 770 m 5
 36.412109375 685.11328125 l 5
 36.41015625 685.11328125 l 5
 36.412109375 575.7890625 l 5
 36.412109375 370.27734375 l 5
 224.538085938 370.27734375 l 6
 305.430664062 371.41015625 386.319335938 372.80859375 467.211914062 373.981445312 c 4
 479.834960938 373.856445312 492.454101562 373.981445312 505.073242188 373.981445312 c 4
 545.595703125 373.939453125 585.83984375 372.395507812 625.88671875 368.465820312 c 4
 686.6171875 362.5078125 728.803710938 352.739257812 737.015625 311.888671875 c 4
 739.952148438 297.286132812 741.564453125 282.651367188 741.973632812 267.986328125 c 4
 741.560546875 253.331054688 739.952148438 238.705078125 737.017578125 224.112304688 c 4
 728.805664062 183.262695312 686.619140625 165.443359375 625.888671875 159.485351562 c 4
 585.840820312 155.5546875 545.596679688 154.01171875 505.075195312 153.969726562 c 4
 492.456054688 153.966796875 479.836914062 154.090820312 467.213867188 153.969726562 c 4
 426.696289062 153.969726562 386.51171875 156.009765625 346.40234375 159.485351562 c 4
 276.46875 165.543945312 254.513671875 202.274414062 254.608398438 219.899414062 c 6
 254.921875 268.91015625 l 5
 30 268.91015625 l 5
 30 187.33984375 l 6
 30.8876953125 181.166992188 31.75 174.993164062 32.826171875 168.825195312 c 4
 47.6669921875 83.6044921875 123.895507812 25.5625 233.6328125 13.1318359375 c 4
 305.991210938 4.9345703125 378.72265625 1.708984375 451.938476562 1.63671875 c 6
 451.940429688 1.63671875 l 6
 474.747070312 1.8974609375 497.548828125 1.63671875 520.353515625 1.63671875 c 4
 593.571289062 1.73828125 666.297851562 4.9365234375 738.657226562 13.1337890625 c 4
 848.39453125 25.564453125 924.620117188 83.6044921875 939.461914062 168.825195312 c 4
 944.80078125 199.4765625 947.717773438 230.200195312 948.432617188 260.983398438 c 5
 948.739257812 260.983398438 l 5
 948.739257812 263.311523438 948.622070312 265.635742188 948.583984375 267.962890625 c 4
 948.622070312 270.315429688 948.739257812 272.666015625 948.739257812 275.01953125 c 5
 948.4296875 275.01953125 l 5
 947.71484375 305.803710938 944.797851562 336.52734375 939.458984375 367.178710938 c 4
 924.616210938 452.3984375 848.393554688 492.388671875 738.655273438 504.819335938 c 4
 666.295898438 513.015625 593.56640625 516.213867188 520.349609375 516.31640625 c 4
 502.862304688 516.31640625 485.375976562 516.225585938 467.889648438 516.270507812 c 5
 467.889648438 516.31640625 l 5
 297.0546875 516.365234375 l 6
 275.7890625 516.282226562 256.01953125 512.150390625 244.298828125 505.338867188 c 5
 244.298828125 516.373046875 l 5
 244.296875 516.373046875 l 5
 244.296875 534.186523438 l 5
 244.833984375 598.321289062 l 5
 948.737304688 598.321289062 l 5
 948.737304688 770 l 5
 36.412109375 770 l 5
EndSplineSet
EndChar

StartChar: six
Encoding: 54 54 57
Width: 970
Flags: HW
LayerCount: 2
Fore
SplineSet
441.55859375 770 m 5
 441.55859375 769.998046875 l 5
 369.698242188 769.998046875 298.311523438 766.5234375 227.291992188 757.890625 c 4
 119.584960938 744.798828125 33.7265625 684.282226562 30.2021484375 593.91796875 c 4
 29.2861328125 570.458984375 31.8681640625 284.916992188 30.4814453125 260.633789062 c 5
 30.583984375 260.633789062 l 5
 30.4697265625 257.859375 30.2734375 255.088867188 30.201171875 252.313476562 c 6
 30.201171875 239.294921875 l 6
 30.939453125 210.743164062 33.951171875 182.250976562 39.462890625 153.823242188 c 4
 54.7841796875 74.7841796875 133.473632812 20.9501953125 246.758789062 9.421875 c 4
 321.45703125 1.8193359375 396.53515625 -1.146484375 472.120117188 -1.2412109375 c 4
 475.567382812 -1.2412109375 479.016601562 -1.2412109375 482.462890625 -1.2412109375 c 4
 484.2734375 -1.2412109375 486.083007812 -1.2412109375 487.893554688 -1.2412109375 c 4
 491.340820312 -1.2412109375 494.7890625 -1.2412109375 498.236328125 -1.2412109375 c 4
 573.821289062 -1.146484375 648.8984375 1.8193359375 723.59765625 9.421875 c 4
 836.8828125 20.9501953125 915.573242188 74.7841796875 930.895507812 153.823242188 c 4
 936.40625 182.250976562 939.416992188 210.743164062 940.15625 239.294921875 c 5
 940.469726562 239.294921875 l 5
 940.469726562 241.453125 940.348632812 243.610351562 940.310546875 245.768554688 c 4
 940.348632812 247.950195312 940.469726562 250.130859375 940.469726562 252.313476562 c 5
 940.15234375 252.313476562 l 5
 939.4140625 280.864257812 936.401367188 309.357421875 930.889648438 337.786132812 c 4
 915.567382812 416.82421875 836.875 453.915039062 723.58984375 465.443359375 c 4
 648.891601562 473.045898438 573.813476562 476.01171875 498.23046875 476.106445312 c 4
 493.939453125 476.106445312 489.647460938 476.102539062 485.356445312 476.106445312 c 4
 480.9453125 476.106445312 476.534179688 476.106445312 472.122070312 476.106445312 c 6
 472.120117188 476.104492188 l 5
 472.122070312 476.102539062 l 5
 413.525390625 476.03125 355.240234375 474.155273438 297.193359375 469.80859375 c 4
 274.615234375 467.041015625 245.10546875 460.12109375 235.840820312 455.125976562 c 5
 235.840820312 458.260742188 l 6
 236.124023438 499.116210938 236.420898438 533.973632812 236.740234375 535.676757812 c 4
 244.80078125 578.69921875 278.35546875 608 337.9609375 614.274414062 c 4
 377.267578125 618.4140625 416.766601562 620.0390625 456.5390625 620.08203125 c 4
 468.923828125 620.084960938 481.31640625 619.954101562 493.703125 620.08203125 c 4
 533.474609375 620.08203125 572.9765625 618.4140625 612.282226562 614.274414062 c 4
 647.215820312 610.596679688 714.946289062 599.333984375 714.85546875 585.819335938 c 6
 714.541992188 538.793945312 l 5
 940.471679688 538.793945312 l 5
 940.471679688 579.508789062 l 5
 940.6796875 579.508789062 l 5
 940.471679688 592.595703125 l 5
 940.471679688 603.8828125 l 6
 940.279296875 604.951171875 940.081054688 606.01953125 939.887695312 607.086914062 c 4
 933.931640625 711.874023438 862.703125 741.595703125 722.963867188 757.877929688 c 4
 651.895507812 766.159179688 580.55859375 769.909179688 508.697265625 769.985351562 c 4
 486.313476562 769.713867188 463.936523438 769.985351562 441.552734375 769.985351562 c 5
 441.55859375 770 l 5
485.180664062 344.080078125 m 4
 526.092773438 343.986328125 566.739257812 342.556640625 607.184570312 338.991210938 c 4
 669.87890625 333.46484375 713.428710938 324.404296875 721.905273438 286.517578125 c 4
 724.936523438 272.973632812 726.598632812 259.3984375 727.021484375 245.796875 c 4
 726.594726562 232.206054688 724.936523438 218.640625 721.907226562 205.107421875 c 4
 713.431640625 167.220703125 669.87890625 141.418945312 607.186523438 135.892578125 c 4
 566.736328125 132.327148438 526.08984375 130.901367188 485.172851562 130.803710938 c 4
 444.262695312 130.90234375 403.619140625 132.327148438 363.17578125 135.892578125 c 4
 300.481445312 141.418945312 256.9296875 167.220703125 248.452148438 205.107421875 c 4
 245.423828125 218.640625 243.765625 232.206054688 243.337890625 245.796875 c 4
 243.759765625 259.3984375 245.422851562 272.973632812 248.454101562 286.517578125 c 4
 256.931640625 324.404296875 300.483398438 333.46484375 363.177734375 338.991210938 c 4
 403.622070312 342.556640625 444.267578125 343.984375 485.180664062 344.080078125 c 4
EndSplineSet
EndChar

StartChar: seven
Encoding: 55 55 58
Width: 963
Flags: HW
LayerCount: 2
Fore
SplineSet
30 770 m 5
 30 595.959960938 l 5
 647.541992188 595.959960938 l 5
 107.131835938 -1.2412109375 l 5
 393.454101562 -1.2412109375 l 5
 933.490234375 595.959960938 l 5
 933.490234375 770 l 5
 30 770 l 5
EndSplineSet
EndChar

StartChar: eight
Encoding: 56 56 59
Width: 970
Flags: HW
LayerCount: 2
Fore
SplineSet
469.098632812 770 m 5
 469.098632812 769.833984375 l 5
 396.764648438 769.39453125 324.852539062 766.6328125 253.299804688 760 c 4
 136.658203125 749.186523438 55.6357421875 698.700195312 39.8603515625 624.57421875 c 4
 34.185546875 597.912109375 31.0849609375 571.188476562 30.3251953125 544.411132812 c 5
 30 544.411132812 l 5
 30 542.38671875 30.1279296875 540.364257812 30.166015625 538.33984375 c 4
 30.1279296875 536.29296875 30 534.249023438 30 532.201171875 c 5
 30.328125 532.201171875 l 5
 31.087890625 505.424804688 34.1884765625 478.702148438 39.86328125 452.040039062 c 4
 46.3681640625 421.477539062 64.1142578125 397.6953125 90.7255859375 379.430664062 c 5
 64.11328125 358.029296875 46.3681640625 331.568359375 39.86328125 301.004882812 c 4
 34.189453125 274.342773438 31.087890625 247.619140625 30.328125 220.841796875 c 5
 30.00390625 220.841796875 l 5
 30.00390625 218.817382812 30.1279296875 216.794921875 30.169921875 214.770507812 c 4
 30.1279296875 212.724609375 30.00390625 210.6796875 30.00390625 208.631835938 c 5
 30.33203125 208.631835938 l 5
 31.091796875 181.85546875 34.1923828125 155.1328125 39.8681640625 128.470703125 c 4
 55.6435546875 54.3447265625 136.663085938 19.5595703125 253.305664062 8.7470703125 c 4
 324.857421875 2.1142578125 396.76953125 -0.6484375 469.102539062 -1.0869140625 c 5
 469.102539062 -1.2421875 l 5
 474.513671875 -1.2421875 479.926757812 -1.2421875 485.338867188 -1.2421875 c 4
 490.750976562 -1.2421875 496.161132812 -1.2421875 501.573242188 -1.2421875 c 5
 501.573242188 -1.0908203125 l 5
 573.905273438 -0.6513671875 645.817382812 2.1103515625 717.369140625 8.7431640625 c 4
 834.01171875 19.5556640625 915.03125 54.3408203125 930.807617188 128.466796875 c 4
 936.482421875 155.12890625 939.583007812 181.8515625 940.342773438 208.627929688 c 5
 940.671875 208.627929688 l 5
 940.671875 210.67578125 940.53515625 212.720703125 940.504882812 214.766601562 c 4
 940.546875 216.791015625 940.671875 218.813476562 940.671875 220.837890625 c 5
 940.346679688 220.837890625 l 5
 939.586914062 247.615234375 936.485351562 274.338867188 930.811523438 301.000976562 c 4
 924.306640625 331.564453125 906.5625 358.025390625 879.94921875 379.426757812 c 5
 906.5625 397.69140625 924.30859375 421.474609375 930.813476562 452.038085938 c 4
 936.48828125 478.700195312 939.588867188 505.422851562 940.348632812 532.19921875 c 5
 940.677734375 532.19921875 l 5
 940.677734375 534.247070312 940.541992188 536.291015625 940.51171875 538.337890625 c 4
 940.552734375 540.362304688 940.677734375 542.384765625 940.677734375 544.409179688 c 5
 940.356445312 544.409179688 l 5
 939.596679688 571.186523438 936.49609375 597.91015625 930.821289062 624.572265625 c 4
 915.044921875 698.698242188 834.0234375 749.184570312 717.380859375 759.997070312 c 4
 645.829101562 766.630859375 573.916992188 769.392578125 501.58203125 769.831054688 c 5
 501.58203125 769.998046875 l 5
 496.168945312 769.998046875 490.755859375 769.998046875 485.341796875 769.998046875 c 4
 479.928710938 769.998046875 474.514648438 769.998046875 469.1015625 769.998046875 c 6
 469.098632812 770 l 5
485.244140625 646.051757812 m 4
 522.862304688 645.72265625 560.276367188 644.38671875 597.516601562 641.396484375 c 4
 662.068359375 636.213867188 706.909179688 612.014648438 715.63671875 576.482421875 c 4
 718.755859375 563.790039062 720.465820312 551.068359375 720.905273438 538.321289062 c 4
 720.470703125 525.565429688 718.756835938 512.833007812 715.634765625 500.131835938 c 4
 706.90625 464.598632812 662.06640625 456.1015625 597.514648438 450.918945312 c 4
 563.731445312 448.206054688 529.796875 446.901367188 495.705078125 446.428710938 c 4
 492.248046875 446.427734375 488.791992188 446.428710938 485.334960938 446.428710938 c 4
 481.927734375 446.428710938 478.520507812 446.427734375 475.11328125 446.428710938 c 4
 440.974609375 446.899414062 406.993164062 448.204101562 373.165039062 450.920898438 c 4
 308.612304688 456.103515625 263.772460938 464.600585938 255.043945312 500.133789062 c 4
 251.922851562 512.834960938 250.208007812 525.567382812 249.7734375 538.323242188 c 4
 250.212890625 551.0703125 251.922851562 563.791992188 255.041992188 576.484375 c 4
 263.76953125 612.016601562 308.610351562 636.21484375 373.162109375 641.397460938 c 4
 410.33984375 644.3828125 447.690429688 645.719726562 485.244140625 646.051757812 c 4
495.225585938 322.32421875 m 6
 529.48046875 321.857421875 563.577148438 320.552734375 597.520507812 317.827148438 c 4
 662.072265625 312.64453125 706.913085938 288.4453125 715.640625 252.913085938 c 4
 718.760742188 240.220703125 720.469726562 227.499023438 720.91015625 214.751953125 c 4
 720.474609375 201.995117188 718.760742188 189.263671875 715.638671875 176.5625 c 4
 706.911132812 141.030273438 662.0703125 132.532226562 597.518554688 127.350585938 c 4
 560.342773438 124.364257812 522.9921875 123.02734375 485.439453125 122.697265625 c 4
 447.821289062 123.025390625 410.408203125 124.361328125 373.16796875 127.3515625 c 4
 308.616210938 132.534179688 263.776367188 141.032226562 255.047851562 176.564453125 c 4
 251.926757812 189.265625 250.211914062 201.997070312 249.77734375 214.75390625 c 4
 250.216796875 227.500976562 251.924804688 240.221679688 255.043945312 252.915039062 c 4
 263.772460938 288.447265625 308.614257812 312.645507812 373.166015625 317.829101562 c 4
 407.045898438 320.548828125 441.078125 321.853515625 475.268554688 322.322265625 c 4
 478.624023438 322.3203125 481.979492188 322.322265625 485.334960938 322.322265625 c 5
 485.334960938 322.322265625 l 5
 488.62890625 322.322265625 491.922851562 322.326171875 495.216796875 322.322265625 c 6
 495.225585938 322.32421875 l 6
EndSplineSet
EndChar

StartChar: nine
Encoding: 57 57 60
Width: 970
Flags: HW
LayerCount: 2
Fore
SplineSet
529.12109375 -1.2412109375 m 5
 529.12109375 -1.240234375 l 5
 600.981445312 -1.240234375 672.368164062 2.2353515625 743.387695312 10.8681640625 c 4
 851.094726562 23.9599609375 936.953125 84.4755859375 940.477539062 174.840820312 c 4
 941.392578125 198.299804688 938.811523438 483.841796875 940.198242188 508.125 c 5
 940.095703125 508.125 l 5
 940.208984375 510.899414062 940.40625 513.669921875 940.478515625 516.444335938 c 6
 940.478515625 529.463867188 l 6
 939.740234375 558.015625 936.727539062 586.5078125 931.216796875 614.935546875 c 4
 915.89453125 693.973632812 837.205078125 747.80859375 723.920898438 759.336914062 c 4
 649.221679688 766.939453125 574.143554688 769.905273438 498.559570312 770 c 4
 495.111328125 770 491.663085938 770 488.216796875 770 c 4
 486.40625 770 484.596679688 770 482.786132812 770 c 4
 479.338867188 770 475.890625 770 472.442382812 770 c 4
 396.858398438 769.905273438 321.780273438 766.939453125 247.08203125 759.336914062 c 4
 133.796875 747.80859375 55.10546875 693.973632812 39.7841796875 614.935546875 c 4
 34.2724609375 586.5078125 31.26171875 558.015625 30.5234375 529.463867188 c 5
 30.2099609375 529.463867188 l 5
 30.2099609375 527.305664062 30.3310546875 525.1484375 30.3681640625 522.990234375 c 4
 30.3310546875 520.80859375 30.2099609375 518.627929688 30.2099609375 516.444335938 c 5
 30.52734375 516.444335938 l 5
 31.265625 487.89453125 34.2783203125 459.401367188 39.7900390625 430.97265625 c 4
 55.111328125 351.934570312 133.8046875 314.84375 247.08984375 303.315429688 c 4
 321.788085938 295.712890625 396.866210938 292.74609375 472.44921875 292.65234375 c 4
 476.740234375 292.65234375 481.032226562 292.65625 485.322265625 292.65234375 c 4
 489.733398438 292.65234375 494.14453125 292.65234375 498.557617188 292.65234375 c 6
 498.559570312 292.654296875 l 5
 498.557617188 292.65625 l 5
 557.153320312 292.727539062 615.439453125 294.603515625 673.486328125 298.950195312 c 4
 696.063476562 301.717773438 725.57421875 308.637695312 734.838867188 313.6328125 c 5
 734.838867188 310.497070312 l 6
 734.5546875 269.642578125 734.258789062 234.78515625 733.939453125 233.08203125 c 4
 725.87890625 190.05859375 692.32421875 160.758789062 632.71875 154.483398438 c 4
 593.412109375 150.344726562 553.913085938 148.719726562 514.140625 148.67578125 c 4
 501.754882812 148.672851562 489.362304688 148.8046875 476.9765625 148.67578125 c 4
 437.205078125 148.67578125 397.703125 150.344726562 358.396484375 154.483398438 c 4
 323.463867188 158.162109375 255.733398438 169.424804688 255.82421875 182.939453125 c 6
 256.137695312 229.96484375 l 5
 30.20703125 229.96484375 l 5
 30.20703125 189.25 l 5
 30 189.25 l 5
 30.20703125 176.162109375 l 5
 30.20703125 164.875976562 l 6
 30.400390625 163.807617188 30.5986328125 162.739257812 30.7919921875 161.671875 c 4
 36.748046875 56.884765625 107.9765625 27.1630859375 247.71484375 10.880859375 c 4
 318.783203125 2.599609375 390.12109375 -1.1513671875 461.981445312 -1.2265625 c 4
 484.366210938 -0.955078125 506.743164062 -1.2265625 529.126953125 -1.2265625 c 5
 529.12109375 -1.2412109375 l 5
485.499023438 424.677734375 m 4
 444.5859375 424.772460938 403.940429688 426.202148438 363.495117188 429.767578125 c 4
 300.80078125 435.293945312 257.250976562 444.354492188 248.774414062 482.241210938 c 4
 245.7421875 495.78515625 244.080078125 509.360351562 243.658203125 522.9609375 c 4
 244.084960938 536.552734375 245.743164062 550.1171875 248.772460938 563.651367188 c 4
 257.248046875 601.538085938 300.799804688 627.33984375 363.493164062 632.866210938 c 4
 403.942382812 636.431640625 444.58984375 637.857421875 485.506835938 637.955078125 c 4
 526.416015625 637.856445312 567.059570312 636.431640625 607.50390625 632.866210938 c 4
 670.198242188 627.33984375 713.75 601.538085938 722.2265625 563.651367188 c 4
 725.255859375 550.1171875 726.9140625 536.552734375 727.341796875 522.9609375 c 4
 726.918945312 509.360351562 725.255859375 495.78515625 722.224609375 482.241210938 c 4
 713.748046875 444.354492188 670.196289062 435.293945312 607.501953125 429.767578125 c 4
 567.056640625 426.202148438 526.411132812 424.774414062 485.499023438 424.677734375 c 4
EndSplineSet
EndChar

StartChar: zero
Encoding: 48 48 61
Width: 975
Flags: HW
LayerCount: 2
Fore
SplineSet
266.86328125 747.786132812 m 5
 142.909179688 729.263671875 56.80859375 642.775390625 40.04296875 515.794921875 c 4
 25.8916015625 408.612304688 27.4345703125 315.732421875 40.04296875 220.243164062 c 4
 56.80859375 93.2626953125 142.908203125 33.6748046875 266.862304688 15.15234375 c 4
 339.802734375 4.2529296875 506.0546875 -15.1123046875 708.590820312 15.1533203125 c 4
 832.544921875 33.6748046875 918.642578125 93.2626953125 935.408203125 220.244140625 c 4
 949.559570312 327.424804688 948.01953125 420.30859375 935.408203125 515.794921875 c 4
 918.642578125 642.775390625 832.54296875 729.263671875 708.587890625 747.786132812 c 4
 635.685546875 758.680664062 469.41015625 778.053710938 266.858398438 747.786132812 c 5
 266.86328125 747.786132812 l 5
601.19921875 590.560546875 m 4
 684.45703125 579.181640625 742.291015625 526.055664062 753.547851562 448.044921875 c 4
 762.38671875 386.828125 762.005859375 339.008789062 753.545898438 280.421875 c 4
 742.288085938 202.412109375 684.454101562 183.755859375 601.196289062 172.37890625 c 4
 517.234375 160.900390625 458.661132812 160.840820312 374.259765625 172.37890625 c 4
 291.001953125 183.755859375 233.16796875 202.412109375 221.91015625 280.421875 c 4
 213.432617188 339.141601562 213.092773438 386.987304688 221.908203125 448.044921875 c 4
 233.165039062 526.055664062 291.001953125 579.181640625 374.259765625 590.560546875 c 4
 458.217773438 602.036132812 516.775390625 602.100585938 601.19921875 590.560546875 c 4
EndSplineSet
EndChar

StartChar: underscore
Encoding: 95 95 62
Width: 987
Flags: HW
LayerCount: 2
Fore
SplineSet
957.14453125 153 m 5
 30 153 l 5
 30 -0.65234375 l 5
 957.14453125 -0.65234375 l 5
 957.14453125 153 l 5
EndSplineSet
EndChar

StartChar: question
Encoding: 63 63 63
Width: 842
Flags: HW
LayerCount: 2
Fore
SplineSet
214.754882812 767 m 6
 112.404296875 767 30 664.16015625 30 536.41796875 c 4
 30 524.767578125 30.701171875 513.331054688 32.029296875 502.155273438 c 6
 229.162109375 502.155273438 l 5
 228.267578125 506.916015625 227.729492188 511.862304688 227.729492188 516.974609375 c 6
 227.729492188 522.405273438 l 6
 227.729492188 557.827148438 250.581054688 586.34375 278.959960938 586.34375 c 6
 567.147460938 586.34375 l 6
 595.528320312 586.34375 618.372070312 557.827148438 618.372070312 522.405273438 c 6
 618.372070312 516.974609375 l 6
 618.372070312 486.577148438 601.52734375 461.322265625 578.817382812 454.75390625 c 6
 379.358398438 454.75390625 l 6
 328.456054688 454.75390625 287.190429688 413.489257812 287.190429688 362.584960938 c 6
 287.190429688 305.834960938 l 5
 287.190429688 249.084960938 l 5
 457.287109375 249.084960938 l 5
 457.287109375 265.956054688 l 6
 457.287109375 287.98046875 475.140625 305.834960938 497.165039062 305.834960938 c 6
 627.3828125 305.834960938 l 6
 729.733398438 305.834960938 812.1328125 408.674804688 812.1328125 536.41796875 c 4
 812.1328125 664.16015625 729.733398438 767 627.3828125 767 c 6
 214.754882812 767 l 6
284.034179688 166.829101562 m 5
 284.034179688 -0.3720703125 l 5
 454.130859375 -0.3720703125 l 5
 454.130859375 166.829101562 l 5
 284.034179688 166.829101562 l 5
EndSplineSet
EndChar

StartChar: period
Encoding: 46 46 64
Width: 272
Flags: HW
LayerCount: 2
Fore
SplineSet
30 209 m 5
 30 0.142578125 l 5
 242.47265625 0.142578125 l 5
 242.47265625 209 l 5
 30 209 l 5
EndSplineSet
EndChar

StartChar: colon
Encoding: 58 58 65
Width: 272
Flags: HW
LayerCount: 2
Fore
SplineSet
30 570 m 5
 30 361.146484375 l 5
 242.47265625 361.146484375 l 5
 242.47265625 570 l 5
 30 570 l 5
30 208.686523438 m 5
 30 -0.1669921875 l 5
 242.47265625 -0.1669921875 l 5
 242.47265625 208.686523438 l 5
 30 208.686523438 l 5
EndSplineSet
EndChar

StartChar: semicolon
Encoding: 59 59 66
Width: 272
Flags: HW
LayerCount: 2
Fore
SplineSet
30 570 m 5
 30 361.145507812 l 5
 242.471679688 361.145507812 l 5
 242.471679688 570 l 5
 30 570 l 5
30 210.916015625 m 5
 30 2.0625 l 5
 115.29296875 2.0625 l 5
 115.29296875 1.5439453125 115.399414062 1.037109375 115.399414062 0.5234375 c 4
 115.400390625 -43.462890625 78.8603515625 -90.541015625 33.78515625 -90.541015625 c 4
 32.5390625 -90.4345703125 31.29296875 -90.3896484375 30.0498046875 -90.2841796875 c 5
 30.0498046875 -212.768554688 l 5
 109.276367188 -212.768554688 l 6
 182.81640625 -212.768554688 242.521484375 -153.063476562 242.521484375 -79.5234375 c 4
 242.521484375 11.3798828125 l 5
 242.521484375 210.91015625 l 5
 30 210.916015625 l 5
EndSplineSet
EndChar

StartChar: comma
Encoding: 44 44 67
Width: 272
Flags: HW
LayerCount: 2
Fore
SplineSet
30 209 m 5
 30 0.146484375 l 5
 115.29296875 0.146484375 l 5
 115.29296875 -0.37109375 115.403320312 -0.8779296875 115.403320312 -1.392578125 c 4
 115.403320312 -45.3779296875 78.8642578125 -92.45703125 33.7890625 -92.45703125 c 4
 32.54296875 -92.3466796875 31.296875 -92.3056640625 30.0537109375 -92.19921875 c 5
 30.0537109375 -214.684570312 l 5
 109.280273438 -214.684570312 l 6
 182.870117188 -214.68359375 242.525390625 -155.028320312 242.525390625 -81.4384765625 c 6
 242.525390625 9.4638671875 l 5
 242.525390625 208.995117188 l 5
 30 209 l 5
EndSplineSet
EndChar

StartChar: less
Encoding: 60 60 68
Width: 854
Flags: HW
LayerCount: 2
Fore
SplineSet
824.4609375 767 m 5
 781.1875 751.087890625 l 5
 30.8095703125 475.0546875 l 5
 30.8095703125 439.994140625 l 5
 30.8095703125 408.65234375 l 5
 30.8095703125 390.133789062 l 5
 30.8095703125 358.678710938 l 5
 30 317.946289062 l 5
 824.451171875 0.275390625 l 5
 824.451171875 159.874023438 l 5
 254.057617188 397.236328125 l 5
 824.451171875 608.553710938 l 5
 824.4609375 767 l 5
EndSplineSet
EndChar

StartChar: greater
Encoding: 62 62 69
Width: 854
Flags: HW
LayerCount: 2
Fore
SplineSet
30 -0.724609375 m 5
 73.2763671875 15.1865234375 l 5
 823.65234375 291.220703125 l 5
 823.65234375 326.28125 l 5
 823.65234375 357.623046875 l 5
 823.65234375 376.141601562 l 5
 823.65234375 407.596679688 l 5
 824.4609375 448.329101562 l 5
 30.009765625 766 l 5
 30.009765625 606.401367188 l 5
 600.405273438 369.038085938 l 5
 30.009765625 157.721679688 l 5
 30 -0.724609375 l 5
EndSplineSet
EndChar

StartChar: asterisk
Encoding: 42 42 70
Width: 503
Flags: HW
LayerCount: 2
Fore
SplineSet
185.643554688 620 m 5
 185.643554688 503.163085938 l 5
 62.22265625 536.234375 l 5
 30 415.969726562 l 5
 136.626953125 387.399414062 l 5
 67.8427734375 268.254882812 l 5
 175.668945312 206 l 5
 247.891601562 331.099609375 l 5
 320.122070312 206 l 5
 427.947265625 268.254882812 l 5
 360.200195312 385.598632812 l 5
 473.53515625 415.969726562 l 5
 441.307617188 536.234375 l 5
 310.151367188 501.08984375 l 5
 310.151367188 620 l 5
 185.643554688 620 l 5
EndSplineSet
EndChar

StartChar: plus
Encoding: 43 43 71
Width: 630
Flags: HW
LayerCount: 2
Fore
SplineSet
243.599609375 689 m 5
 243.599609375 475.407226562 l 5
 30 475.407226562 l 5
 30 332.565429688 l 5
 243.599609375 332.565429688 l 5
 243.599609375 118.966796875 l 5
 386.44140625 118.966796875 l 5
 386.44140625 332.565429688 l 5
 600.0390625 332.565429688 l 5
 600.0390625 475.407226562 l 5
 386.44140625 475.407226562 l 5
 386.44140625 689 l 5
 243.599609375 689 l 5
EndSplineSet
EndChar

StartChar: equal
Encoding: 61 61 72
Width: 630
Flags: HW
LayerCount: 2
Fore
SplineSet
30 563 m 5
 30 420.159179688 l 5
 600.03515625 420.159179688 l 5
 600.03515625 563 l 5
 30 563 l 5
30 374.576171875 m 5
 30 231.735351562 l 5
 600.03515625 231.735351562 l 5
 600.03515625 374.576171875 l 5
 30 374.576171875 l 5
EndSplineSet
EndChar

StartChar: asciitilde
Encoding: 126 126 73
Width: 888
Flags: HW
LayerCount: 2
Fore
SplineSet
251.360351562 530 m 5
 210.873046875 528.036132812 173.75 514.396484375 142.849609375 493.879882812 c 4
 99.08984375 464.856445312 65.123046875 427.836914062 37.1875 391.060546875 c 6
 30 381.59375 l 5
 121.041992188 305.098632812 l 5
 129.026367188 315.151367188 l 6
 154 346.572265625 178.6796875 374.28125 205.3984375 391.016601562 c 4
 222.71484375 401.8046875 240.5390625 408.61328125 254.922851562 408.61328125 c 6
 255.34375 408.61328125 l 5
 255.743164062 408.61328125 l 6
 269.016601562 409.498046875 286.583007812 404.89453125 305.880859375 397.55078125 c 4
 326.797851562 389.245117188 349.15625 376.6171875 373.96875 363.159179688 c 4
 400.583984375 348.520507812 429.1640625 333.290039062 460.75 320.520507812 c 4
 494.984375 306.673828125 531.98828125 297.091796875 570.798828125 294.203125 c 6
 570.908203125 294.203125 l 6
 616.62109375 291.182617188 661.625 297.8515625 703.529296875 311.739257812 c 4
 760.1796875 330.625 805.5625 368.0703125 848.875 399.36328125 c 6
 858.59375 406.37890625 l 5
 792.291015625 506.609375 l 5
 752.490234375 478.391601562 706.399414062 439.854492188 667.872070312 427.4765625 c 4
 638.172851562 417.860351562 607.70703125 413.174804688 578.915039062 415.35546875 c 6
 578.80859375 415.35546875 l 5
 578.69921875 415.35546875 l 6
 554.203125 416.918945312 528.672851562 423.689453125 503.25390625 433.732421875 c 4
 479.5703125 443.1015625 455.1171875 456.267578125 429.033203125 470.444335938 c 6
 428.923828125 470.444335938 l 6
 405 483.633789062 378.72265625 498.282226562 348.759765625 510.567382812 c 6
 348.650390625 510.567382812 l 6
 320.236328125 522.528320312 287.416015625 530.520507812 251.603515625 529.916015625 c 6
 251.388671875 529.916015625 l 5
 251.360351562 530 l 5
EndSplineSet
EndChar

StartChar: exclam
Encoding: 33 33 74
Width: 264
Flags: HW
LayerCount: 2
Fore
SplineSet
30 -0.234375 m 5
 234.75 -0.234375 l 5
 234.75 169.21875 l 5
 30 169.21875 l 5
 30 -0.234375 l 5
41.4189453125 209.130859375 m 5
 223.331054688 209.130859375 l 5
 234.75 771 l 5
 30 771 l 5
 41.4189453125 209.130859375 l 5
EndSplineSet
EndChar

StartChar: quotedbl
Encoding: 34 34 75
Width: 505
Flags: HW
LayerCount: 2
Fore
SplineSet
30 800 m 5
 41.4189453125 435.178710938 l 5
 194.565429688 435.178710938 l 5
 205.984375 800 l 5
 30 800 l 5
299.685546875 800 m 5
 311.100585938 435.178710938 l 5
 464.245117188 435.178710938 l 5
 475.6640625 800 l 5
 299.685546875 800 l 5
EndSplineSet
EndChar

StartChar: numbersign
Encoding: 35 35 76
Width: 923
Flags: HW
LayerCount: 2
Fore
SplineSet
431.965820312 756 m 5
 284.586914062 751.091796875 l 5
 260.7890625 599.364257812 l 5
 108.504882812 599.364257812 l 5
 79.1689453125 453.983398438 l 5
 237.993164062 453.983398438 l 5
 213.516601562 297.915039062 l 5
 59.330078125 297.915039062 l 5
 30 152.53515625 l 5
 190.719726562 152.53515625 l 5
 166.010742188 -5.0107421875 l 5
 313.388671875 -0.1025390625 l 5
 337.326171875 152.53515625 l 5
 511.256835938 152.53515625 l 5
 486.545898438 -5.0107421875 l 5
 633.92578125 -0.1025390625 l 5
 657.862304688 152.53515625 l 5
 815.413085938 152.53515625 l 5
 844.749023438 297.915039062 l 5
 680.6640625 297.915039062 l 5
 705.139648438 453.983398438 l 5
 864.587890625 453.983398438 l 5
 893.91796875 599.364257812 l 5
 727.942382812 599.364257812 l 5
 752.5078125 756 l 5
 605.126953125 751.091796875 l 5
 581.330078125 599.364257812 l 5
 407.401367188 599.364257812 l 5
 431.965820312 756 l 5
384.604492188 453.983398438 m 5
 558.528320312 453.983398438 l 5
 534.053710938 297.915039062 l 5
 360.12890625 297.915039062 l 5
 384.604492188 453.983398438 l 5
EndSplineSet
EndChar

StartChar: dollar
Encoding: 36 36 77
Width: 1036
Flags: HW
LayerCount: 2
Fore
SplineSet
471.2265625 800 m 5
 471.2265625 709.34765625 l 5
 260.583984375 709.34765625 l 6
 132.840820312 709.34765625 30 606.5078125 30 478.764648438 c 4
 30 351.021484375 132.840820312 248.181640625 260.583984375 248.181640625 c 6
 471.2265625 248.181640625 l 5
 471.2265625 116.591796875 l 5
 340.725585938 116.591796875 l 6
 305.3046875 116.591796875 276.786132812 145.108398438 276.786132812 180.530273438 c 6
 276.786132812 185.9609375 l 6
 276.786132812 191.07421875 277.4453125 196.021484375 278.571289062 200.782226562 c 5
 32.53125 200.782226562 l 6
 30.8798828125 189.604492188 30 178.168945312 30 166.517578125 c 4
 30 38.775390625 132.844726562 -64.064453125 260.588867188 -64.064453125 c 6
 471.2265625 -64.064453125 l 5
 471.2265625 -152.380859375 l 5
 564.951171875 -152.380859375 l 5
 564.951171875 -64.064453125 l 5
 775.588867188 -64.064453125 l 6
 903.33203125 -64.064453125 1006.17382812 38.775390625 1006.17382812 166.517578125 c 4
 1006.17382812 294.26171875 903.33203125 397.1015625 775.588867188 397.1015625 c 6
 564.951171875 397.1015625 l 5
 564.951171875 528.690429688 l 5
 695.448242188 528.690429688 l 6
 730.869140625 528.690429688 759.385742188 500.174804688 759.385742188 464.752929688 c 6
 759.385742188 459.322265625 l 6
 759.385742188 454.208984375 758.728515625 449.26171875 757.6015625 444.500976562 c 5
 1003.64257812 444.500976562 l 6
 1005.29394531 455.677734375 1006.17382812 467.114257812 1006.17382812 478.764648438 c 4
 1006.17382812 606.5078125 903.327148438 709.34765625 775.583984375 709.34765625 c 6
 564.951171875 709.34765625 l 5
 564.951171875 800 l 5
 471.2265625 800 l 5
335.767578125 528.690429688 m 6
 471.2265625 528.690429688 l 5
 471.2265625 397.1015625 l 5
 321.198242188 397.1015625 l 6
 292.854492188 403.668945312 271.830078125 428.923828125 271.830078125 459.322265625 c 6
 271.830078125 464.752929688 l 6
 271.830078125 500.174804688 300.346679688 528.690429688 335.767578125 528.690429688 c 6
564.951171875 248.181640625 m 5
 714.974609375 248.181640625 l 6
 743.319335938 241.61328125 764.342773438 216.359375 764.342773438 185.9609375 c 6
 764.342773438 180.530273438 l 6
 764.342773438 145.108398438 735.827148438 116.591796875 700.405273438 116.591796875 c 6
 564.951171875 116.591796875 l 5
 564.951171875 248.181640625 l 5
EndSplineSet
EndChar

StartChar: percent
Encoding: 37 37 78
Width: 1422
Flags: HW
LayerCount: 2
Fore
SplineSet
125.888671875 771 m 6
 72.76953125 771 30 723.625976562 30 664.775390625 c 6
 30 439.561523438 l 6
 30 380.7109375 72.76953125 333.336914062 125.888671875 333.336914062 c 6
 468.879882812 333.336914062 l 6
 521.998046875 333.336914062 564.762695312 380.7109375 564.762695312 439.561523438 c 6
 564.762695312 664.775390625 l 6
 564.762695312 723.625976562 521.998046875 771 468.879882812 771 c 6
 125.888671875 771 l 6
946.923828125 766.696289062 m 5
 341.985351562 -0.025390625 l 5
 456.501953125 -0.025390625 l 5
 1061.41796875 766.696289062 l 5
 946.923828125 766.696289062 l 5
207.724609375 666.576171875 m 6
 387.04296875 666.576171875 l 6
 414.813476562 666.576171875 437.170898438 641.802734375 437.170898438 611.03515625 c 6
 437.170898438 493.295898438 l 6
 437.170898438 462.528320312 414.813476562 437.765625 387.04296875 437.765625 c 6
 207.724609375 437.765625 l 6
 179.954101562 437.765625 157.598632812 462.528320312 157.598632812 493.295898438 c 6
 157.598632812 611.03515625 l 6
 157.598632812 641.802734375 179.954101562 666.576171875 207.724609375 666.576171875 c 6
953.743164062 437.637695312 m 6
 900.624023438 437.637695312 857.85546875 390.256835938 857.85546875 331.407226562 c 6
 857.85546875 106.19921875 l 6
 857.85546875 47.3486328125 900.624023438 -0.025390625 953.743164062 -0.025390625 c 6
 1296.734375 -0.025390625 l 6
 1349.85351562 -0.025390625 1392.6171875 47.3486328125 1392.6171875 106.19921875 c 6
 1392.6171875 331.407226562 l 6
 1392.6171875 390.256835938 1349.85351562 437.637695312 1296.734375 437.637695312 c 6
 953.743164062 437.637695312 l 6
1035.57910156 333.208984375 m 6
 1214.89746094 333.208984375 l 6
 1242.66796875 333.208984375 1265.02539062 308.439453125 1265.02539062 277.671875 c 6
 1265.02539062 159.93359375 l 6
 1265.02539062 129.166015625 1242.66796875 104.3984375 1214.89746094 104.3984375 c 6
 1035.57910156 104.3984375 l 6
 1007.80957031 104.3984375 985.452148438 129.166015625 985.452148438 159.93359375 c 6
 985.452148438 277.671875 l 6
 985.452148438 308.439453125 1007.80957031 333.208984375 1035.57910156 333.208984375 c 6
EndSplineSet
EndChar

StartChar: ampersand
Encoding: 38 38 79
Width: 1053
Flags: HW
LayerCount: 2
Fore
SplineSet
299.469726562 766 m 6
 206.077148438 766.000976562 130.366210938 707.954101562 130.366210938 636.350585938 c 6
 130.366210938 569.313476562 l 5
 130.366210938 514.647460938 l 6
 130.366210938 478.672851562 157.936523438 446.387695312 199.740234375 433.262695312 c 5
 199.103515625 433.262695312 l 6
 105.711914062 433.264648438 30.0009765625 357.556640625 30 264.1640625 c 6
 30 182.896484375 l 5
 30 178.502929688 l 6
 30 79.51953125 110.241210938 -0.720703125 209.224609375 -0.720703125 c 6
 226.6875 -0.720703125 l 5
 767.838867188 -0.720703125 l 6
 873.8671875 -5.3408203125 963.564453125 76.8681640625 968.18359375 182.896484375 c 6
 968.18359375 274.909179688 l 5
 968.18359375 319.013671875 l 5
 1023.76953125 319.013671875 l 5
 1023.76953125 433.190429688 l 5
 968.18359375 433.190429688 l 5
 968.18359375 455.13671875 l 5
 767.838867188 455.13671875 l 5
 767.838867188 433.190429688 l 5
 327.052734375 433.190429688 l 5
 327.052734375 569.313476562 l 5
 690.703125 569.313476562 l 5
 690.703125 503.26171875 l 5
 891.047851562 503.26171875 l 5
 891.047851562 569.313476562 l 5
 891.047851562 586.03515625 l 6
 891.047851562 685.427734375 810.473632812 766 711.08203125 766 c 6
 327.052734375 766 l 5
 299.469726562 766 l 6
226.688476562 290.465820312 m 5
 767.83984375 290.465820312 l 5
 767.83984375 246.360351562 l 5
 767.83984375 154.34765625 l 5
 226.688476562 154.34765625 l 5
 226.688476562 246.360351562 l 5
 226.688476562 290.465820312 l 5
EndSplineSet
EndChar

StartChar: quotesingle
Encoding: 39 39 80
Width: 235
Flags: HW
LayerCount: 2
Fore
SplineSet
30 800 m 1
 41.4150390625 435.178710938 l 1
 194.559570312 435.178710938 l 1
 205.978515625 800 l 1
 30 800 l 1
EndSplineSet
EndChar

StartChar: parenleft
Encoding: 40 40 81
Width: 350
Flags: HW
LayerCount: 2
Fore
SplineSet
132.372070312 767 m 6
 75.83203125 766.999023438 29.9990234375 721.163085938 30 664.622070312 c 6
 30 538.982421875 l 5
 30 436.50390625 l 5
 30 330.775390625 l 5
 30 228.295898438 l 5
 30 102.657226562 l 6
 29.9990234375 46.1171875 75.83203125 0.2802734375 132.372070312 0.279296875 c 6
 234.75 0.279296875 l 5
 320.991210938 0.279296875 l 5
 320.991210938 143.013671875 l 5
 303.21484375 143.013671875 l 6
 265.404296875 143.013671875 234.750976562 162.249023438 234.75 200.060546875 c 6
 234.75 228.295898438 l 5
 234.75 330.775390625 l 5
 234.75 359.614257812 l 5
 234.75 407.665039062 l 5
 234.75 436.50390625 l 5
 234.75 538.982421875 l 5
 234.75 567.21875 l 6
 234.750976562 605.03125 265.404296875 624.264648438 303.21484375 624.264648438 c 6
 320.991210938 624.264648438 l 5
 320.991210938 767 l 5
 234.75 767 l 5
 132.372070312 767 l 6
EndSplineSet
EndChar

StartChar: parenright
Encoding: 41 41 82
Width: 350
Flags: HW
LayerCount: 2
Fore
SplineSet
218.619140625 767 m 6
 116.241210938 767 l 5
 30 767 l 5
 30 624.264648438 l 5
 47.7763671875 624.264648438 l 6
 85.5869140625 624.264648438 116.240234375 605.03125 116.241210938 567.21875 c 6
 116.241210938 538.982421875 l 5
 116.241210938 436.50390625 l 5
 116.241210938 407.665039062 l 5
 116.241210938 359.614257812 l 5
 116.241210938 330.775390625 l 5
 116.241210938 228.297851562 l 5
 116.241210938 200.061523438 l 6
 116.240234375 162.248046875 85.5869140625 143.013671875 47.7763671875 143.013671875 c 6
 30 143.013671875 l 5
 30 0.279296875 l 5
 116.241210938 0.279296875 l 5
 218.619140625 0.279296875 l 6
 275.159179688 0.2802734375 320.9921875 46.1171875 320.991210938 102.657226562 c 6
 320.991210938 228.297851562 l 5
 320.991210938 330.775390625 l 5
 320.991210938 436.50390625 l 5
 320.991210938 538.982421875 l 5
 320.991210938 664.622070312 l 6
 320.9921875 721.163085938 275.159179688 766.999023438 218.619140625 767 c 6
EndSplineSet
EndChar

StartChar: bracketleft
Encoding: 91 91 83
Width: 350
Flags: HW
LayerCount: 2
Fore
SplineSet
30 767 m 5
 30 675.14453125 l 5
 30.5390625 675.14453125 l 5
 30.18359375 671.684570312 30 668.176757812 30 664.622070312 c 6
 30 538.982421875 l 5
 30 436.504882812 l 5
 30 330.775390625 l 5
 30 228.297851562 l 5
 30 102.657226562 l 5
 30 0.279296875 l 5
 132.372070312 0.279296875 l 5
 234.75 0.279296875 l 5
 320.9921875 0.279296875 l 5
 320.9921875 143.015625 l 5
 232.369140625 143.015625 l 5
 232.369140625 624.264648438 l 5
 320.9921875 624.264648438 l 5
 320.9921875 650.611328125 l 5
 320.9921875 767 l 5
 234.75 767 l 5
 146.6796875 767 l 5
 132.372070312 767 l 5
 30 767 l 5
EndSplineSet
EndChar

StartChar: bracketright
Encoding: 93 93 84
Width: 350
Flags: HW
LayerCount: 2
Fore
SplineSet
320.9921875 766 m 5
 218.619140625 766 l 5
 204.3125 766 l 5
 116.241210938 766 l 5
 30 766 l 5
 30 649.610351562 l 5
 30 623.264648438 l 5
 118.623046875 623.264648438 l 5
 118.623046875 142.013671875 l 5
 30 142.013671875 l 5
 30 -0.720703125 l 5
 116.241210938 -0.720703125 l 5
 218.619140625 -0.720703125 l 5
 320.9921875 -0.720703125 l 5
 320.9921875 101.65625 l 5
 320.9921875 227.297851562 l 5
 320.9921875 329.775390625 l 5
 320.9921875 435.502929688 l 5
 320.9921875 537.982421875 l 5
 320.9921875 663.622070312 l 6
 320.9921875 667.174804688 320.80859375 670.68359375 320.453125 674.143554688 c 5
 320.9921875 674.143554688 l 5
 320.9921875 766 l 5
EndSplineSet
EndChar

StartChar: braceleft
Encoding: 123 123 85
Width: 428
Flags: HW
LayerCount: 2
Fore
SplineSet
230.322265625 770.999023438 m 6
 179.827148438 770.998046875 138.896484375 725.161132812 138.897460938 668.62109375 c 6
 138.897460938 542.98046875 l 5
 138.897460938 520.439453125 l 5
 138.897460938 511.796875 l 6
 138.807617188 495.578125 134.258789062 480.352539062 126.546875 467.57421875 c 4
 112.567382812 444.0546875 87.7998046875 428.45703125 59.5234375 428.348632812 c 4
 49.1044921875 428.436523438 39.0986328125 430.67578125 30 434.604492188 c 5
 30.0625 434.568359375 30 376.387695312 30 376.387695312 c 5
 30 318.169921875 l 5
 39.0986328125 322.098632812 49.1044921875 324.337890625 59.5234375 324.424804688 c 4
 87.7998046875 324.317382812 112.567382812 308.719726562 126.546875 285.200195312 c 4
 134.258789062 272.421875 138.807617188 257.196289062 138.897460938 240.977539062 c 5
 138.84765625 241.075195312 138.897460938 227.936523438 138.897460938 227.936523438 c 5
 138.897460938 102.296875 l 6
 138.896484375 45.755859375 179.827148438 -0.080078125 230.322265625 -0.0810546875 c 6
 321.750976562 -0.0810546875 l 5
 398.76953125 -0.0810546875 l 5
 398.76953125 142.654296875 l 5
 382.895507812 142.654296875 l 6
 349.12890625 142.654296875 321.751953125 161.888671875 321.750976562 199.700195312 c 6
 321.750976562 227.936523438 l 5
 321.750976562 250.479492188 l 5
 321.750976562 279.317382812 l 5
 321.750976562 297.534179688 l 5
 321.750976562 303.344726562 l 5
 321.750976562 307.94921875 l 6
 321.750976562 341.586914062 303.463867188 370.413085938 277.422851562 382.5546875 c 5
 303.463867188 394.6953125 321.750976562 423.522460938 321.750976562 457.159179688 c 4
 321.798828125 457.194335938 321.750976562 467.57421875 321.750976562 467.57421875 c 5
 321.750976562 491.6015625 l 5
 321.750976562 520.439453125 l 5
 321.750976562 542.981445312 l 5
 321.750976562 571.217773438 l 6
 321.751953125 609.028320312 349.12890625 628.264648438 382.895507812 628.264648438 c 6
 398.76953125 628.264648438 l 5
 398.76953125 771 l 5
 321.750976562 771 l 5
 230.322265625 770.999023438 l 6
EndSplineSet
EndChar

StartChar: braceright
Encoding: 125 125 86
Width: 428
Flags: HW
LayerCount: 2
Fore
SplineSet
198.447265625 770.999023438 m 6
 107.018554688 771 l 5
 30 771 l 5
 30 628.264648438 l 5
 45.8740234375 628.264648438 l 6
 79.6416015625 628.264648438 107.017578125 609.028320312 107.018554688 571.217773438 c 6
 107.018554688 542.981445312 l 5
 107.018554688 520.439453125 l 5
 107.018554688 491.6015625 l 5
 107.018554688 467.57421875 l 5
 107.018554688 467.57421875 106.970703125 457.194335938 107.018554688 457.159179688 c 4
 107.018554688 423.522460938 125.305664062 394.696289062 151.346679688 382.5546875 c 5
 125.305664062 370.413085938 107.018554688 341.586914062 107.018554688 307.94921875 c 6
 107.018554688 303.344726562 l 5
 107.018554688 297.534179688 l 5
 107.018554688 279.317382812 l 5
 107.018554688 250.479492188 l 5
 107.018554688 227.936523438 l 5
 107.018554688 199.700195312 l 6
 107.017578125 161.888671875 79.6416015625 142.654296875 45.8740234375 142.654296875 c 6
 30 142.654296875 l 5
 30 -0.0810546875 l 5
 107.018554688 -0.0810546875 l 5
 198.447265625 -0.0810546875 l 6
 248.94140625 -0.080078125 289.873046875 45.755859375 289.87109375 102.296875 c 6
 289.87109375 227.936523438 l 5
 289.87109375 227.936523438 289.921875 241.075195312 289.87109375 240.977539062 c 5
 289.9609375 257.196289062 294.510742188 272.421875 302.22265625 285.200195312 c 4
 316.202148438 308.719726562 340.970703125 324.317382812 369.24609375 324.424804688 c 4
 379.666015625 324.337890625 389.671875 322.098632812 398.76953125 318.169921875 c 5
 398.76953125 376.387695312 l 5
 398.76953125 376.387695312 398.70703125 434.568359375 398.76953125 434.604492188 c 5
 389.671875 430.67578125 379.666015625 428.436523438 369.24609375 428.348632812 c 4
 340.970703125 428.456054688 316.202148438 444.0546875 302.22265625 467.57421875 c 4
 294.510742188 480.352539062 289.9609375 495.578125 289.87109375 511.796875 c 6
 289.87109375 520.439453125 l 5
 289.87109375 542.98046875 l 5
 289.87109375 668.62109375 l 6
 289.873046875 725.161132812 248.94140625 770.998046875 198.447265625 770.999023438 c 6
EndSplineSet
EndChar

StartChar: asciicircum
Encoding: 94 94 87
Width: 598
Flags: HW
LayerCount: 2
Fore
SplineSet
217.125 800 m 5
 217.125 799.168945312 l 5
 30 476.412109375 l 5
 130.030273438 476.412109375 l 5
 280.583007812 736.090820312 l 5
 317.963867188 736.090820312 l 5
 468.516601562 476.412109375 l 5
 568.546875 476.412109375 l 5
 380.942382812 799.995117188 l 5
 379.817382812 799.995117188 l 5
 317.634765625 799.995117188 l 5
 280.913085938 799.995117188 l 5
 217.60546875 799.995117188 l 5
 217.125 800 l 5
EndSplineSet
EndChar

StartChar: hyphen
Encoding: 45 45 88
Width: 630
Flags: HW
LayerCount: 2
Fore
SplineSet
30 327.158203125 m 5
 600.037109375 327.158203125 l 5
 600.037109375 470 l 5
 30 470 l 5
 30 327.158203125 l 5
EndSplineSet
EndChar

StartChar: at
Encoding: 64 64 89
Width: 1035
Flags: HW
LayerCount: 2
Fore
SplineSet
140.806640625 765 m 6
 79.6513671875 765 30.0009765625 715.279296875 30 654.037109375 c 5
 30 626.422851562 l 5
 30 116.103515625 l 6
 30 51.3603515625 82.48828125 -1.203125 147.138671875 -1.203125 c 5
 147.137695312 -1.2021484375 168.37890625 -1.203125 168.37890625 -1.203125 c 5
 795.109375 -1.203125 l 5
 795.109375 137.374023438 l 5
 193.1875 137.374023438 l 6
 179.3984375 140.375976562 168.90234375 153.127929688 168.447265625 168.661132812 c 5
 168.37890625 168.661132812 l 5
 168.37890625 594.46484375 l 5
 168.447265625 594.46484375 l 5
 168.96875 612.251953125 182.653320312 626.392578125 199.375 626.422851562 c 4
 199.98046875 626.419921875 200.586914062 626.384765625 201.19140625 626.358398438 c 5
 201.19140625 626.422851562 l 5
 834.291015625 626.422851562 l 5
 834.291015625 626.358398438 l 5
 834.895507812 626.400390625 835.500976562 626.418945312 836.107421875 626.422851562 c 4
 852.829101562 626.384765625 866.514648438 612.251953125 867.03515625 594.46484375 c 5
 867.103515625 594.46484375 l 5
 867.103515625 330.333984375 l 5
 867.0390625 330.333984375 l 5
 867.080078125 329.727539062 867.099609375 329.12109375 867.103515625 328.514648438 c 4
 867.065429688 311.768554688 852.952148438 298.064453125 835.19140625 297.541992188 c 5
 835.19140625 297.474609375 l 5
 793.198242188 297.474609375 l 5
 793.198242188 432.95703125 l 6
 793.198242188 523.208007812 718.6953125 596.372070312 626.791015625 596.372070312 c 6
 396.775390625 596.372070312 l 6
 314.407226562 596.205078125 242.41015625 536.909179688 230.326171875 456.897460938 c 5
 390.263671875 456.897460938 l 5
 406.149414062 482.5546875 430.34375 497.130859375 453.435546875 497.234375 c 6
 570.11328125 497.234375 l 6
 611.9140625 497.234375 646.525390625 450.671875 653.25390625 389.607421875 c 5
 636.14453125 409.856445312 608.9765625 423.211914062 575.15625 427.194335938 c 4
 540.264648438 431.302734375 505.193359375 432.920898438 469.888671875 432.95703125 c 4
 458.891601562 432.828125 447.897460938 432.95703125 436.900390625 432.95703125 c 4
 401.595703125 432.904296875 366.52734375 431.302734375 331.63671875 427.194335938 c 4
 278.720703125 420.963867188 241.9609375 391.87109375 234.802734375 349.155273438 c 4
 228.88671875 313.842773438 228.782226562 278.354492188 234.802734375 242.686523438 c 4
 242.013671875 199.9765625 278.720703125 170.87890625 331.63671875 164.647460938 c 4
 371.953125 159.899414062 412.510742188 158.490234375 453.39453125 158.991210938 c 4
 494.279296875 158.4921875 534.837890625 159.899414062 575.15625 164.647460938 c 4
 609.858398438 168.733398438 637.513671875 182.704101562 654.525390625 203.849609375 c 5
 654.525390625 158.991210938 l 5
 693.294921875 158.991210938 l 5
 693.294921875 158.896484375 l 5
 898.725585938 158.896484375 l 6
 957.645507812 158.896484375 1005.48144531 206.799804688 1005.48144531 265.803710938 c 5
 1005.48046875 265.803710938 1005.48144531 297.135742188 1005.48144531 297.135742188 c 5
 1005.48144531 628.513671875 l 5
 1005.48144531 658.822265625 l 6
 1005.48144531 717.422851562 957.973632812 764.999023438 899.45703125 765 c 5
 140.806640625 765 l 6
425.767578125 344.913085938 m 6
 425.76953125 344.913085938 l 5
 647.75390625 344.913085938 l 5
 648.663085938 321.098632812 647.908203125 270.279296875 647.908203125 270.279296875 c 6
 642.16015625 245.272460938 618.608398438 240.608398438 584.185546875 238.072265625 c 4
 557.958007812 236.141601562 531.575195312 235.568359375 504.978515625 235.770507812 c 4
 478.3828125 235.56640625 451.994140625 236.140625 425.767578125 238.072265625 c 4
 391.345703125 240.608398438 367.467773438 252.450195312 362.77734375 269.831054688 c 4
 358.861328125 284.345703125 358.928710938 298.786132812 362.77734375 313.15625 c 4
 367.43359375 330.5390625 391.345703125 342.376953125 425.767578125 344.913085938 c 6
EndSplineSet
EndChar

StartChar: slash
Encoding: 47 47 90
Width: 784
Flags: HW
LayerCount: 2
Fore
SplineSet
596.8671875 771 m 5
 590.109375 761.799804688 l 5
 30 -0.234375 l 5
 187.913085938 -0.234375 l 5
 754.76171875 771 l 5
 596.8671875 771 l 5
EndSplineSet
EndChar

StartChar: grave
Encoding: 96 96 91
Width: 235
Flags: HW
LayerCount: 2
Fore
SplineSet
30 800 m 1
 41.4150390625 435.178710938 l 1
 194.559570312 435.178710938 l 1
 205.978515625 800 l 1
 30 800 l 1
EndSplineSet
EndChar

StartChar: divide
Encoding: 256 247 92
Width: 784
Flags: HW
LayerCount: 2
Fore
SplineSet
596.868164062 -0.234375 m 5
 754.76171875 -0.234375 l 5
 187.913085938 771 l 5
 30 771 l 5
 590.109375 8.9658203125 l 5
 596.868164062 -0.234375 l 5
EndSplineSet
EndChar

StartChar: aogonek
Encoding: 162 261 93
Width: 797
Flags: HW
LayerCount: 2
Fore
SplineSet
244.68359375 540 m 6
 138.446289062 539.795898438 45.5859375 466.5546875 30 367.728515625 c 5
 236.28515625 367.728515625 l 5
 256.774414062 399.41796875 287.978515625 417.423828125 317.76171875 417.55078125 c 6
 468.251953125 417.55078125 l 6
 585.166015625 417.55078125 575.293945312 359.333007812 575.486328125 284.6171875 c 5
 553.418945312 309.627929688 518.375976562 326.124023438 474.75390625 331.04296875 c 4
 429.751953125 336.118164062 384.520507812 338.115234375 338.984375 338.16015625 c 4
 324.799804688 338.000976562 310.619140625 338.16015625 296.435546875 338.16015625 c 4
 250.900390625 338.095703125 205.668945312 336.118164062 160.66796875 331.04296875 c 4
 92.4189453125 323.346679688 45.0068359375 287.4140625 35.7734375 234.654296875 c 4
 28.142578125 191.037109375 28.0087890625 147.206054688 35.7734375 103.150390625 c 4
 45.07421875 50.3974609375 92.4189453125 14.4560546875 160.66796875 6.759765625 c 4
 212.66796875 0.8955078125 264.98046875 -0.8427734375 317.7109375 -0.224609375 c 4
 370.443359375 -0.8408203125 422.751953125 0.8955078125 474.75390625 6.759765625 c 4
 519.512695312 11.806640625 555.185546875 29.0634765625 577.126953125 55.181640625 c 5
 577.126953125 -0.224609375 l 5
 608.08984375 -0.224609375 l 5
 590.451171875 -27.1162109375 578.599609375 -67.619140625 603.232421875 -107.32421875 c 4
 633.221679688 -155.663085938 696.924804688 -170.967773438 767.80859375 -133.74609375 c 5
 741.169921875 -91.78125 l 5
 688.321289062 -119.532226562 668.930664062 -67.9345703125 667.029296875 -63.884765625 c 4
 660.782226562 -50.5791015625 655.46875 -29.013671875 663.6953125 -0.224609375 c 5
 755.984375 -0.224609375 l 5
 755.984375 338.16015625 l 6
 755.984375 449.633789062 659.892578125 540 541.35546875 540 c 6
 244.68359375 540 l 6
287.8125 209.685546875 m 5
 287.8203125 209.685546875 l 5
 505.603515625 209.685546875 l 5
 506.430664062 188.926757812 505.74609375 144.626953125 505.74609375 144.626953125 c 6
 500.513671875 122.829101562 479.077148438 119.440429688 447.744140625 117.2890625 c 4
 423.870117188 115.650390625 405.135742188 115.1640625 375.646484375 115.3359375 c 4
 346.158203125 115.162109375 325.709960938 115.649414062 287.8203125 117.2890625 c 4
 238.08984375 119.440429688 203.594726562 129.489257812 196.818359375 144.23828125 c 4
 191.16015625 156.5546875 191.2578125 169.477539062 196.818359375 182.00390625 c 4
 203.544921875 197.155273438 238.087890625 207.474609375 287.814453125 209.685546875 c 5
 287.8125 209.685546875 l 5
EndSplineSet
EndChar

StartChar: sacute
Encoding: 247 347 94
Width: 768
Flags: HW
LayerCount: 2
Fore
SplineSet
417.296875 750 m 5
 295.49609375 599.255859375 l 5
 329.2265625 563.93359375 l 5
 472.572265625 684.017578125 l 5
 417.296875 750 l 5
197.2578125 538.271484375 m 6
 104.600585938 538.271484375 30.005859375 466.657226562 30.005859375 377.703125 c 4
 30.005859375 288.748046875 104.600585938 217.13671875 197.2578125 217.13671875 c 6
 526.8515625 217.13671875 l 6
 547.41015625 212.5625 562.66015625 194.975585938 562.66015625 173.806640625 c 6
 562.66015625 170.02734375 l 6
 562.66015625 145.360351562 541.98046875 125.501953125 516.28515625 125.501953125 c 6
 255.390625 125.501953125 l 6
 229.698242188 125.501953125 209.01171875 145.360351562 209.01171875 170.02734375 c 6
 209.01171875 173.806640625 l 6
 209.01171875 177.368164062 209.487304688 180.815429688 210.30078125 184.130859375 c 5
 31.833984375 184.130859375 l 6
 30.6396484375 176.346679688 30 168.37890625 30 160.265625 c 4
 30 71.3115234375 104.599609375 -0.296875 197.2578125 -0.296875 c 6
 570.810546875 -0.296875 l 6
 663.467773438 -0.296875 738.0625 71.3115234375 738.0625 160.265625 c 4
 738.0625 249.220703125 663.467773438 320.833984375 570.810546875 320.833984375 c 6
 241.216796875 320.833984375 l 6
 220.658203125 325.409179688 205.41015625 342.99609375 205.41015625 364.1640625 c 6
 205.41015625 367.94921875 l 6
 205.41015625 392.615234375 226.094726562 412.46875 251.7890625 412.46875 c 6
 512.681640625 412.46875 l 6
 538.374023438 412.46875 559.056640625 392.615234375 559.056640625 367.94921875 c 6
 559.056640625 364.1640625 l 6
 559.056640625 360.602539062 558.58203125 357.163085938 557.76953125 353.84765625 c 5
 736.234375 353.84765625 l 6
 737.4296875 361.630859375 738.068359375 369.590820312 738.068359375 377.703125 c 4
 738.068359375 466.657226562 663.474609375 538.271484375 570.81640625 538.271484375 c 6
 197.2578125 538.271484375 l 6
EndSplineSet
EndChar

StartChar: eogonek
Encoding: 253 281 95
Width: 796
Flags: HW
LayerCount: 2
Fore
SplineSet
371.251953125 540 m 6
 312.928710938 539.8984375 254.994140625 536.739257812 197.35546875 528.638671875 c 4
 109.940429688 516.353515625 49.220703125 458.994140625 37.39453125 374.775390625 c 4
 27.6201171875 305.151367188 27.4501953125 235.182617188 37.39453125 164.859375 c 4
 49.3076171875 80.6513671875 109.940429688 23.283203125 197.35546875 10.998046875 c 4
 255.967773438 2.7607421875 314.916015625 -0.1875 374.240234375 -0.150390625 c 5
 356.493164062 -27.03515625 344.486328125 -67.6494140625 369.224609375 -107.458984375 c 4
 399.258789062 -155.787109375 463.057617188 -171.088867188 534.044921875 -133.875 c 5
 507.3671875 -91.91796875 l 5
 454.440429688 -119.663085938 435.022460938 -68.0751953125 433.1171875 -64.025390625 c 4
 426.844726562 -50.6875 421.502929688 -29.0478515625 429.838867188 -0.146484375 c 5
 486.771484375 0.0654296875 543.360351562 3.087890625 599.643554688 10.998046875 c 4
 687.057617188 23.283203125 747.692382812 72.6513671875 759.603515625 156.859375 c 4
 760.061523438 160.096679688 760.387695312 163.329101562 760.802734375 166.564453125 c 5
 575.125 166.564453125 l 5
 559.458007812 151.184570312 536.974609375 149.063476562 509.81640625 145.7578125 c 4
 472.955078125 141.271484375 435.87890625 139.940429688 398.5 140.4140625 c 4
 361.122070312 139.9375 324.0390625 141.274414062 287.181640625 145.7578125 c 4
 248.043945312 150.522460938 218.623046875 169.439453125 205.31640625 197.859375 c 5
 398.400390625 197.859375 l 5
 591.681640625 197.859375 l 5
 763.444335938 197.859375 l 5
 764.829101562 214.974609375 765.78125 232.072265625 766.337890625 249.15234375 c 5
 766.375976562 249.15234375 l 5
 766.375976562 249.72265625 766.375 250.291992188 766.4140625 250.861328125 c 4
 766.500976562 253.625 766.598632812 256.389648438 766.663085938 259.15234375 c 5
 766.549804688 259.15234375 l 5
 766.587890625 261.317382812 766.6484375 263.483398438 766.663085938 265.646484375 c 6
 766.663085938 274.23828125 l 6
 766.583984375 286.890625 765.958984375 299.525390625 765.180664062 312.15234375 c 5
 765.271484375 312.15234375 l 5
 765.166015625 313.694335938 764.9921875 315.805664062 764.876953125 317.451171875 c 4
 764.81640625 318.349609375 764.782226562 319.248046875 764.721679688 320.146484375 c 6
 764.676757812 320.146484375 l 5
 763.459960938 337.599609375 761.852539062 358.912109375 759.625976562 374.775390625 c 4
 747.80078125 458.994140625 687.079101562 516.353515625 599.665039062 528.638671875 c 4
 542.025390625 536.739257812 484.09375 539.928710938 425.770507812 540 c 4
 407.603515625 539.747070312 389.438476562 540 371.272460938 540 c 6
 371.251953125 540 l 6
383.416015625 399.337890625 m 4
 393.469726562 399.340820312 403.52734375 399.216796875 413.578125 399.337890625 c 4
 445.856445312 399.337890625 477.918945312 397.770507812 509.81640625 393.88671875 c 4
 554.959960938 388.392578125 587.21484375 357.112304688 596.646484375 320.154296875 c 5
 233.87109375 320.15234375 l 5
 198.662109375 320.15234375 l 5
 205.2109375 360.514648438 238.809570312 388 287.181640625 393.88671875 c 4
 319.079101562 397.770507812 351.139648438 399.297851562 383.416015625 399.337890625 c 4
EndSplineSet
EndChar

StartChar: cacute
Encoding: 229 263 96
Width: 796
Flags: HW
LayerCount: 2
Fore
SplineSet
431.595703125 751 m 5
 309.794921875 600.25390625 l 5
 343.525390625 564.93359375 l 5
 486.87109375 685.017578125 l 5
 431.595703125 751 l 5
371.927734375 539.81640625 m 4
 313.48828125 539.71484375 255.4375 536.555664062 197.685546875 528.455078125 c 4
 110.096679688 516.169921875 49.2578125 458.810546875 37.41015625 374.591796875 c 4
 27.615234375 304.967773438 27.4443359375 235 37.41015625 164.67578125 c 4
 49.3447265625 80.4677734375 110.096679688 23.0986328125 197.685546875 10.814453125 c 4
 264.420898438 1.4541015625 331.555664062 -1.3251953125 399.2265625 -0.337890625 c 4
 466.899414062 -1.3212890625 534.03515625 1.4541015625 600.771484375 10.814453125 c 4
 688.357421875 23.0986328125 749.112304688 80.4677734375 761.048828125 164.67578125 c 4
 763.571289062 182.483398438 765.431640625 200.267578125 766.666015625 218.029296875 c 5
 599.193359375 218.029296875 l 5
 592.080078125 178.38671875 558.708007812 151.401367188 510.765625 145.576171875 c 4
 473.83203125 141.08984375 436.6796875 139.754882812 399.2265625 140.228515625 c 4
 361.775390625 139.751953125 324.623046875 141.092773438 287.69140625 145.576171875 c 4
 239.21484375 151.46484375 205.594726562 178.96484375 198.9921875 219.330078125 c 4
 193.477539062 253.040039062 193.571289062 286.578125 198.9921875 319.953125 c 4
 205.546875 360.323242188 239.21484375 387.817382812 287.69140625 393.705078125 c 4
 319.65234375 397.588867188 351.776367188 399.11328125 384.1171875 399.154296875 c 4
 394.190429688 399.157226562 404.264648438 399.033203125 414.337890625 399.154296875 c 4
 446.678710938 399.154296875 478.801757812 397.588867188 510.765625 393.705078125 c 4
 542.749023438 389.8203125 568.21875 376.482421875 583.779296875 356.294921875 c 5
 763.302734375 356.294921875 l 5
 762.592773438 362.395507812 761.905273438 368.497070312 761.048828125 374.591796875 c 4
 749.200195312 458.810546875 688.357421875 516.169921875 600.771484375 528.455078125 c 4
 543.018554688 536.555664062 484.967773438 539.74609375 426.529296875 539.81640625 c 4
 408.329101562 539.563476562 390.126953125 539.81640625 371.927734375 539.81640625 c 4
EndSplineSet
EndChar

StartChar: nacute
Encoding: 241 324 97
Width: 746
Flags: HW
LayerCount: 2
Fore
SplineSet
406.654296875 759 m 5
 284.853515625 608.25390625 l 5
 318.583984375 572.93359375 l 5
 461.9296875 693.017578125 l 5
 406.654296875 759 l 5
30 540.69140625 m 5
 30 0.34765625 l 5
 217.724609375 0.34765625 l 5
 217.724609375 245.259765625 l 6
 217.803710938 316.197265625 275.180664062 373.287109375 346.4375 373.287109375 c 6
 400.349609375 373.287109375 l 6
 471.657226562 373.287109375 529.0625 316.118164062 529.0625 245.109375 c 6
 529.0625 36.18359375 l 5
 529.0625 12.236328125 l 5
 529.0625 0.34765625 l 5
 716.783203125 0.34765625 l 5
 716.783203125 166.859375 l 5
 716.783203125 375.38671875 l 6
 716.783203125 456.845703125 613.663085938 505.586914062 529.0625 528.9453125 c 4
 500.969726562 536.716796875 471.765625 540.674804688 442.396484375 540.69140625 c 4
 356.186523438 540.634765625 274.234375 506.68359375 217.724609375 447.615234375 c 5
 217.724609375 540.69140625 l 5
 30 540.69140625 l 5
EndSplineSet
EndChar

StartChar: oacute
Encoding: 243 243 98
Width: 804
Flags: HW
LayerCount: 2
Fore
SplineSet
435.471679688 750 m 5
 313.670898438 599.255859375 l 5
 347.401367188 563.93359375 l 5
 490.747070312 684.017578125 l 5
 435.471679688 750 l 5
374.6875 538.81640625 m 4
 315.77734375 538.71484375 257.2578125 535.555664062 199.040039062 527.455078125 c 4
 110.745117188 515.169921875 49.4150390625 457.810546875 37.4697265625 373.591796875 c 4
 27.5966796875 303.967773438 27.423828125 234 37.4697265625 163.67578125 c 4
 49.501953125 79.4677734375 110.745117188 22.099609375 199.040039062 9.814453125 c 4
 266.3125 0.4541015625 333.991210938 -2.3251953125 402.209960938 -1.337890625 c 4
 470.427734375 -2.3212890625 538.104492188 0.4541015625 605.37890625 9.814453125 c 4
 693.673828125 22.099609375 754.916015625 79.4677734375 766.947265625 163.67578125 c 4
 776.991210938 234 776.818359375 303.967773438 766.947265625 373.591796875 c 4
 755.00390625 457.810546875 693.673828125 515.169921875 605.37890625 527.455078125 c 4
 547.159179688 535.555664062 488.643554688 538.74609375 429.733398438 538.81640625 c 4
 411.383789062 538.563476562 393.037109375 538.81640625 374.6875 538.81640625 c 4
386.975585938 398.154296875 m 4
 397.129882812 398.157226562 407.287109375 398.033203125 417.440429688 398.154296875 c 4
 450.04296875 398.154296875 482.427734375 396.588867188 514.647460938 392.705078125 c 4
 563.51171875 386.817382812 597.452148438 359.32421875 604.0625 318.953125 c 4
 609.529296875 285.578125 609.624023438 252.040039062 604.0625 218.330078125 c 4
 597.404296875 177.96484375 563.51171875 150.46484375 514.647460938 144.576171875 c 4
 477.4140625 140.08984375 439.963867188 138.756835938 402.209960938 139.23046875 c 4
 364.454101562 138.75390625 327.000976562 140.092773438 289.772460938 144.576171875 c 4
 240.905273438 150.46484375 207.01171875 177.96484375 200.356445312 218.330078125 c 4
 194.794921875 252.040039062 194.890625 285.578125 200.356445312 318.953125 c 4
 206.963867188 359.32421875 240.905273438 386.817382812 289.772460938 392.705078125 c 4
 321.991210938 396.588867188 354.374023438 398.114257812 386.975585938 398.154296875 c 4
EndSplineSet
EndChar

StartChar: zacute
Encoding: 174 378 99
Width: 730
Flags: HW
LayerCount: 2
Fore
SplineSet
398.5546875 752 m 5
 276.75390625 601.255859375 l 5
 310.484375 565.93359375 l 5
 453.830078125 686.017578125 l 5
 398.5546875 752 l 5
30 540.27734375 m 5
 30 400.91015625 l 5
 476.458984375 400.91015625 l 5
 30 175.791015625 l 5
 30 130.4765625 l 5
 30 112.884765625 l 5
 30 -0.06640625 l 5
 700.58203125 -0.06640625 l 5
 700.58203125 139.28515625 l 5
 261.83984375 139.28515625 l 5
 700.58203125 360.49609375 l 5
 700.58203125 409.720703125 l 5
 700.58203125 454.9765625 l 5
 700.58203125 540.27734375 l 5
 682.955078125 540.27734375 l 5
 30 540.27734375 l 5
EndSplineSet
EndChar

StartChar: zdotaccent
Encoding: 191 380 100
Width: 730
Flags: HW
LayerCount: 2
Fore
SplineSet
322.333984375 680 m 5
 322.333984375 573.178710938 l 5
 432.127929688 573.178710938 l 5
 432.127929688 680 l 5
 322.333984375 680 l 5
682.954101562 540.3828125 m 5
 682.954101562 540.3828125 l 5
 30 540.3828125 l 5
 30 401.016601562 l 5
 476.45703125 401.016601562 l 5
 30 175.897460938 l 5
 30 130.58203125 l 5
 30 112.990234375 l 5
 30 0.0400390625 l 5
 700.577148438 0.0400390625 l 5
 700.577148438 139.390625 l 5
 261.8359375 139.390625 l 5
 700.577148438 360.6015625 l 5
 700.577148438 409.826171875 l 5
 700.577148438 455.083007812 l 5
 700.577148438 540.3828125 l 5
 682.954101562 540.3828125 l 5
EndSplineSet
EndChar

StartChar: lslash
Encoding: 179 322 101
Width: 416
Flags: HW
LayerCount: 2
Fore
SplineSet
112.59765625 752 m 5
 112.59765625 372.814453125 l 5
 30 332.150390625 l 5
 30 223.31640625 l 5
 112.59765625 263.981445312 l 5
 112.59765625 -0.0712890625 l 5
 304.1015625 -0.0712890625 l 5
 304.1015625 358.271484375 l 5
 386.697265625 398.935546875 l 5
 386.697265625 507.76953125 l 5
 304.1015625 467.104492188 l 5
 304.1015625 752 l 5
 112.59765625 752 l 5
EndSplineSet
EndChar

StartChar: Aogonek
Encoding: 161 260 102
Width: 1217
Flags: HW
LayerCount: 2
Fore
SplineSet
727.3984375 768 m 5
 486.775390625 768 l 5
 484.521484375 764.224609375 l 5
 221.8125 323.23828125 l 5
 30 1.279296875 l 5
 275.126953125 1.279296875 l 5
 357.255859375 139.140625 l 5
 856.9140625 139.140625 l 5
 939.046875 1.279296875 l 5
 971.69921875 1.279296875 l 5
 1027.74023438 1.28125 l 5
 1010.10253906 -25.611328125 998.251953125 -66.1162109375 1022.88476562 -105.8203125 c 4
 1052.87402344 -154.16015625 1116.57714844 -169.46484375 1187.4609375 -132.2421875 c 5
 1160.82421875 -90.275390625 l 5
 1107.97460938 -118.02734375 1088.58300781 -66.4267578125 1086.68164062 -62.376953125 c 4
 1080.43457031 -49.0712890625 1075.12109375 -27.505859375 1083.34765625 1.283203125 c 5
 1099.38867188 1.283203125 l 5
 1184.16992188 1.283203125 l 5
 729.6484375 764.228515625 l 5
 727.3984375 768 l 5
607.0859375 558.48828125 m 5
 747.236328125 323.232421875 l 5
 466.93359375 323.232421875 l 5
 607.0859375 558.48828125 l 5
EndSplineSet
EndChar

StartChar: Eogonek
Encoding: 221 280 103
Width: 905
Flags: HW
LayerCount: 2
Fore
SplineSet
108.302734375 768 m 5
 30 767.998046875 l 5
 30 1.27734375 l 5
 272.2421875 1.27734375 l 5
 272.2421875 1.697265625 l 5
 662.447265625 1.697265625 l 5
 644.80859375 -25.1943359375 632.958984375 -65.697265625 657.591796875 -105.40234375 c 4
 687.581054688 -153.741210938 751.284179688 -169.045898438 822.16796875 -131.82421875 c 5
 795.529296875 -89.857421875 l 5
 742.680664062 -117.608398438 723.290039062 -66.0107421875 721.388671875 -61.9609375 c 4
 715.141601562 -48.6552734375 709.826171875 -27.0908203125 718.052734375 1.697265625 c 5
 875.021484375 1.697265625 l 5
 875.021484375 197.037109375 l 5
 272.2421875 197.037109375 l 5
 272.2421875 304.30859375 l 5
 797.537109375 304.30859375 l 5
 797.537109375 471.099609375 l 5
 272.2421875 471.099609375 l 5
 272.2421875 572.662109375 l 5
 875.021484375 572.662109375 l 5
 875.021484375 768 l 5
 272.2421875 768 l 5
 108.302734375 768 l 5
EndSplineSet
EndChar

StartChar: Cacute
Encoding: 197 262 104
Width: 1095
Flags: HW
LayerCount: 2
Fore
SplineSet
580.954101562 988 m 5
 459.15234375 832.59375 l 5
 492.883789062 796.177734375 l 5
 636.228515625 919.9765625 l 5
 580.954101562 988 l 5
510.576171875 772.830078125 m 4
 428.442382812 772.686523438 346.852539062 768.17578125 265.680664062 756.61328125 c 4
 142.576171875 739.079101562 57.064453125 657.209960938 40.412109375 537.00390625 c 4
 26.6494140625 437.62890625 26.4091796875 337.764648438 40.412109375 237.390625 c 4
 57.1865234375 117.200195312 142.576171875 35.3154296875 265.680664062 17.78125 c 4
 359.477539062 4.4208984375 453.836914062 0.455078125 548.950195312 1.86328125 c 4
 644.065429688 0.458984375 738.420898438 4.4208984375 832.221679688 17.78125 c 4
 955.325195312 35.3154296875 1040.71582031 117.200195312 1057.48632812 237.390625 c 4
 1061.03222656 262.806640625 1063.65234375 288.189453125 1065.3828125 313.541015625 c 5
 830.004882812 313.541015625 l 5
 819.999023438 256.958984375 773.099609375 218.440429688 705.717773438 210.126953125 c 4
 653.806640625 203.723632812 601.586914062 201.8203125 548.950195312 202.49609375 c 4
 496.313476562 201.815429688 444.094726562 203.727539062 392.182617188 210.126953125 c 4
 324.057617188 218.532226562 276.798828125 257.783203125 267.516601562 315.396484375 c 4
 259.764648438 363.51171875 259.897460938 411.380859375 267.516601562 459.017578125 c 4
 276.732421875 516.638671875 324.057617188 555.879882812 392.182617188 564.283203125 c 4
 437.107421875 569.827148438 482.251953125 572.004882812 527.709960938 572.0625 c 4
 541.8671875 572.0625 556.030273438 571.888671875 570.186523438 572.0625 c 4
 615.64453125 572.0625 660.791992188 569.827148438 705.717773438 564.283203125 c 4
 750.666015625 558.73828125 786.467773438 539.703125 808.334960938 510.888671875 c 5
 1060.65625 510.888671875 l 5
 1059.65917969 519.595703125 1058.69140625 528.3046875 1057.48632812 537.00390625 c 4
 1040.83886719 657.209960938 955.325195312 739.079101562 832.221679688 756.61328125 c 4
 751.046875 768.17578125 669.456054688 772.728515625 587.323242188 772.830078125 c 4
 561.740234375 772.467773438 536.162109375 772.830078125 510.576171875 772.830078125 c 4
EndSplineSet
EndChar

StartChar: Nacute
Encoding: 209 323 105
Width: 1112
Flags: HW
LayerCount: 2
Fore
SplineSet
589.515625 987 m 5
 467.71484375 831.59375 l 5
 501.4453125 795.177734375 l 5
 644.791015625 918.9765625 l 5
 589.515625 987 l 5
30 767.583984375 m 5
 30 0.86328125 l 5
 275.123046875 0.86328125 l 5
 275.123046875 559.1484375 l 5
 756.63671875 0.86328125 l 5
 837.3828125 0.86328125 l 5
 872.78125 0.86328125 l 5
 1082.50390625 0.86328125 l 5
 1082.50390625 767.583984375 l 5
 837.3828125 767.583984375 l 5
 837.3828125 218.42578125 l 5
 363.74609375 767.583984375 l 5
 275.123046875 767.583984375 l 5
 30 767.583984375 l 5
EndSplineSet
EndChar

StartChar: Oacute
Encoding: 211 211 106
Width: 1097
Flags: HW
LayerCount: 2
Fore
SplineSet
582.212890625 990 m 5
 460.413085938 834.59375 l 5
 494.143554688 798.177734375 l 5
 637.489257812 921.9765625 l 5
 582.212890625 990 l 5
510.577148438 774.828125 m 4
 428.442382812 774.684570312 346.852539062 770.173828125 265.6796875 758.611328125 c 4
 142.57421875 741.077148438 57.064453125 659.208007812 40.4130859375 539.001953125 c 4
 26.6494140625 439.626953125 26.4091796875 339.762695312 40.4130859375 239.388671875 c 4
 57.1865234375 119.197265625 142.57421875 37.3154296875 265.6796875 19.78125 c 4
 359.477539062 6.4208984375 453.8359375 2.455078125 548.94921875 3.86328125 c 4
 644.060546875 2.458984375 738.421875 6.4208984375 832.220703125 19.78125 c 4
 955.325195312 37.3154296875 1040.71386719 119.197265625 1057.48730469 239.388671875 c 4
 1071.49414062 339.762695312 1071.25097656 439.626953125 1057.48730469 539.001953125 c 4
 1040.8359375 659.208007812 955.325195312 741.077148438 832.220703125 758.611328125 c 4
 751.046875 770.173828125 669.458007812 774.7265625 587.32421875 774.828125 c 4
 561.739257812 774.465820312 536.162109375 774.828125 510.577148438 774.828125 c 4
527.712890625 574.060546875 m 4
 541.870117188 574.064453125 556.03125 573.88671875 570.1875 574.060546875 c 4
 615.646484375 574.060546875 660.793945312 571.825195312 705.71875 566.28125 c 4
 773.846679688 557.877929688 821.168945312 518.638671875 830.385742188 461.017578125 c 4
 838.00390625 413.380859375 838.13671875 365.51171875 830.385742188 317.396484375 c 4
 821.102539062 259.783203125 773.846679688 220.530273438 705.71875 212.125 c 4
 653.806640625 205.721679688 601.586914062 203.8203125 548.94921875 204.49609375 c 4
 496.313476562 203.815429688 444.092773438 205.7265625 392.181640625 212.125 c 4
 324.055664062 220.530273438 276.796875 259.783203125 267.516601562 317.396484375 c 4
 259.764648438 365.51171875 259.897460938 413.380859375 267.516601562 461.017578125 c 4
 276.729492188 518.638671875 324.055664062 557.877929688 392.181640625 566.28125 c 4
 437.107421875 571.825195312 482.254882812 574.002929688 527.712890625 574.060546875 c 4
EndSplineSet
EndChar

StartChar: Sacute
Encoding: 215 346 107
Width: 1036
Flags: HW
LayerCount: 2
Fore
SplineSet
551.349609375 988 m 5
 429.548828125 832.59375 l 5
 463.279296875 796.177734375 l 5
 606.625 919.9765625 l 5
 551.349609375 988 l 5
260.583984375 768.583984375 m 6
 132.841796875 768.583984375 30 666.631835938 30 539.994140625 c 4
 30 413.356445312 132.841796875 311.408203125 260.583984375 311.408203125 c 6
 714.974609375 311.408203125 l 6
 743.318359375 304.897460938 764.34375 279.860351562 764.34375 249.724609375 c 6
 764.34375 244.33984375 l 6
 764.34375 209.225585938 735.826171875 180.95703125 700.404296875 180.95703125 c 6
 340.724609375 180.95703125 l 6
 305.303710938 180.95703125 276.787109375 209.225585938 276.787109375 244.33984375 c 6
 276.787109375 249.724609375 l 6
 276.787109375 254.793945312 277.4453125 259.698242188 278.572265625 264.41796875 c 5
 32.529296875 264.41796875 l 6
 30.8779296875 253.336914062 30 242 30 230.451171875 c 4
 30 103.8125 132.846679688 1.86328125 260.58984375 1.86328125 c 6
 775.58984375 1.86328125 l 6
 903.33203125 1.86328125 1006.17382812 103.8125 1006.17382812 230.451171875 c 4
 1006.17382812 357.087890625 903.33203125 459.0390625 775.58984375 459.0390625 c 6
 321.197265625 459.0390625 l 6
 292.853515625 465.55078125 271.830078125 490.584960938 271.830078125 520.720703125 c 6
 271.830078125 526.10546875 l 6
 271.830078125 561.219726562 300.344726562 589.490234375 335.767578125 589.490234375 c 6
 695.447265625 589.490234375 l 6
 730.868164062 589.490234375 759.38671875 561.219726562 759.38671875 526.10546875 c 6
 759.38671875 520.720703125 l 6
 759.38671875 515.651367188 758.727539062 510.748046875 757.6015625 506.029296875 c 5
 1003.640625 506.029296875 l 6
 1005.29199219 517.110351562 1006.17382812 528.444335938 1006.17382812 539.994140625 c 4
 1006.17382812 666.631835938 903.327148438 768.583984375 775.583984375 768.583984375 c 6
 260.583984375 768.583984375 l 6
EndSplineSet
EndChar

StartChar: Zdotaccent
Encoding: 175 379 108
Width: 960
Flags: HW
LayerCount: 2
Fore
SplineSet
427.5390625 918 m 5
 427.5390625 795.822265625 l 5
 551.825195312 795.822265625 l 5
 551.825195312 918 l 5
 427.5390625 918 l 5
30 768.227539062 m 5
 30 589.661132812 l 5
 685.728515625 589.661132812 l 5
 30 238.891601562 l 5
 30 180.073242188 l 5
 30 154.283203125 l 5
 30 1.5068359375 l 5
 930.541992188 1.5068359375 l 5
 930.541992188 180.073242188 l 5
 285.53515625 180.073242188 l 5
 930.541992188 525.104492188 l 5
 930.541992188 589.661132812 l 5
 930.541992188 768.227539062 l 5
 30 768.227539062 l 5
EndSplineSet
EndChar

StartChar: Zacute
Encoding: 172 377 109
Width: 960
Flags: HW
LayerCount: 2
Fore
SplineSet
513.53515625 987 m 5
 391.732421875 831.591796875 l 5
 425.462890625 795.177734375 l 5
 568.80859375 918.9765625 l 5
 513.53515625 987 l 5
30 767.42578125 m 5
 30 588.859375 l 5
 685.728515625 588.859375 l 5
 30 238.08984375 l 5
 30 179.271484375 l 5
 30 153.482421875 l 5
 30 0.705078125 l 5
 930.54296875 0.705078125 l 5
 930.54296875 179.271484375 l 5
 285.53515625 179.271484375 l 5
 930.54296875 524.302734375 l 5
 930.54296875 588.859375 l 5
 930.54296875 767.42578125 l 5
 30 767.42578125 l 5
EndSplineSet
EndChar

StartChar: Lslash
Encoding: 163 321 110
Width: 786
Flags: HW
LayerCount: 2
Fore
SplineSet
30 767 m 5
 30 198.567382812 l 5
 30 0.279296875 l 5
 275.125 0.279296875 l 5
 756.580078125 0.279296875 l 5
 756.580078125 198.567382812 l 5
 275.125 198.567382812 l 5
 275.125 312.219726562 l 5
 504.737304688 427.471679688 l 5
 504.737304688 570.313476562 l 5
 275.125 455.060546875 l 5
 275.125 767 l 5
 30 767 l 5
EndSplineSet
EndChar

